<?xml version="1.0" encoding="UTF-8"?>
<svg id="Layer_1" xmlns="http://www.w3.org/2000/svg" version="1.1" viewBox="0 0 100 100">
  <!-- Generator: Adobe Illustrator 29.3.0, SVG Export Plug-In . SVG Version: 2.1.0 Build 146)  -->
  <defs>
    <style>
      .st0 {
        fill: #2ed88e;
      }

      .st1 {
        fill: #16303d;
      }
    </style>
  </defs>
  <path class="st1" d="M93,22.1c-1.6-1.6-3.8-2.5-6.1-2.5H13.2c-2.3,0-4.5.9-6.1,2.5-1.6,1.6-2.5,3.8-2.5,6.1v43.5c0,2.3.9,4.5,2.5,6.1,1.6,1.6,3.8,2.5,6.1,2.5h73.6c2.3,0,4.5-.9,6.1-2.5s2.5-3.8,2.5-6.1V28.3c0-2.3-.9-4.5-2.5-6.1ZM88.7,71.7c0,.5-.2,1-.6,1.4-.4.4-.8.6-1.3.6H13.2c-.5,0-1-.2-1.4-.6s-.6-.8-.6-1.3V28.3c0-.5.2-1,.6-1.4.4-.4.8-.6,1.4-.6h73.6c.5,0,1,.2,1.4.6.4.4.6.8.6,1.4v43.5Z"/>
  <path class="st0" d="M20.5,61.4c0-2.6,2.2-4.7,4.7-4.7h12.2c2.6,0,4.7,2.2,4.7,4.7v3.7h4v-3.7c0-4.8-3.9-8.7-8.7-8.7h-12.2c-4.8,0-8.7,3.9-8.7,8.7v3.7h4v-3.7Z"/>
  <path class="st0" d="M31.3,51.4c2.2,0,4.3-.9,5.8-2.4,3.2-3.2,3.2-8.4,0-11.7-1.6-1.6-3.6-2.4-5.8-2.4s-4.3.9-5.8,2.4c-3.2,3.2-3.2,8.4,0,11.7,1.6,1.6,3.6,2.4,5.8,2.4ZM26.8,43.2c0-1.2.5-2.4,1.3-3.3h0c.9-.9,2-1.3,3.3-1.3s2.4.5,3.3,1.3c.9.9,1.3,2,1.3,3.3s-.5,2.4-1.3,3.3c-.9.9-2,1.3-3.3,1.3s-2.4-.5-3.3-1.3c-.9-.9-1.3-2-1.3-3.3Z"/>
  <path class="st1" d="M52,64.8h33.3s.2-.3.2-.3c.4-.5.6-1.3.6-2.1,0-.8-.3-1.5-.8-1.9l-.2-.2h-32.8s-.1,0-.1,0h-.1c-.5.4-.9,1.2-.9,2.1,0,.9.2,1.8.7,2.2l.2.2Z"/>
  <path class="st1" d="M53.3,57.5s0,0,.1,0h30.4c0,0,.2,0,.2,0h.2c.9-.3,1.5-1.2,1.5-2.2,0-1-.6-1.9-1.5-2.2h-.2c0,0-31,0-31,0h-.5c-.2.2-.5.3-.7.6-.7.7-.9,1.8-.4,2.7.4.8,1.1,1.3,1.9,1.3Z"/>
</svg>