<?xml version="1.0" encoding="UTF-8"?>
<svg id="Layer_1" xmlns="http://www.w3.org/2000/svg" version="1.1" viewBox="0 0 100 100">
  <!-- Generator: Adobe Illustrator 29.3.0, SVG Export Plug-In . SVG Version: 2.1.0 Build 146)  -->
  <defs>
    <style>
      .st0 {
        fill: none;
      }

      .st1 {
        fill: #2ed88e;
      }

      .st2 {
        fill: #16303d;
      }
    </style>
  </defs>
  <g>
    <path class="st1" d="M58.7,54.1h-17.5c-6.7,0-12.2,5.5-12.2,12.2v5h5.1v-5c0-3.8,3.2-7.1,7.1-7.1h17.5c3.8,0,7.1,3.2,7.1,7.1v5h5.1v-5c0-6.7-5.5-12.2-12.2-12.2Z"/>
    <path class="st2" d="M50,51.7c3.1,0,6-1.2,8.1-3.4,4.5-4.5,4.5-11.8,0-16.3-2.2-2.2-5.1-3.4-8.1-3.4s-6,1.2-8.1,3.4c-4.5,4.5-4.5,11.8,0,16.3,2.2,2.2,5.1,3.4,8.1,3.4ZM45.2,35.5c1.3-1.3,3-2,4.8-2s3.6.7,4.8,2c1.3,1.3,2,3,2,4.8s-.7,3.6-2,4.8c-1.3,1.3-3,2-4.8,2s-3.6-.7-4.8-2c-2.6-2.6-2.6-7.1,0-9.7Z"/>
  </g>
  <g>
    <path class="st0" d="M21.6,52.1c1.5,0,2.8-.5,3.8-1.6s1.6-2.3,1.6-3.8-.5-2.8-1.6-3.8c-1-1-2.3-1.6-3.8-1.6s-2.8.5-3.8,1.6c-2.1,2.1-2.1,5.6,0,7.7,1,1,2.3,1.6,3.8,1.6Z"/>
    <path class="st1" d="M28.5,57.7h-13.9c-5.3,0-9.7,4.3-9.7,9.7v3.9h4.1v-3.9c0-3,2.6-5.6,5.6-5.6h13.9s0,0,0,0c.5-1.4,1.3-2.7,2.3-3.8-.7-.2-1.5-.3-2.3-.3Z"/>
    <path class="st2" d="M21.6,55.8c2.4,0,4.7-.9,6.4-2.7,3.6-3.6,3.6-9.3,0-12.9-1.7-1.7-4-2.7-6.4-2.7s-4.7.9-6.4,2.7c-3.6,3.6-3.6,9.3,0,12.9,1.7,1.7,4,2.7,6.4,2.7ZM17.8,42.9c1-1,2.3-1.6,3.8-1.6s2.8.5,3.8,1.6c1,1,1.6,2.3,1.6,3.8s-.5,2.8-1.6,3.8-2.3,1.6-3.8,1.6-2.8-.5-3.8-1.6c-2.1-2.1-2.1-5.6,0-7.7Z"/>
  </g>
  <g>
    <path class="st0" d="M78.4,52.1c1.5,0,2.8-.5,3.8-1.6,1-1,1.6-2.3,1.6-3.8s-.5-2.8-1.6-3.8c-1-1-2.3-1.6-3.8-1.6s-2.8.5-3.8,1.6c-2.1,2.1-2.1,5.6,0,7.7,1,1,2.3,1.6,3.8,1.6Z"/>
    <path class="st1" d="M85.3,57.7h-13.9c-.8,0-1.6.1-2.3.3,1,1.1,1.8,2.4,2.3,3.8,0,0,0,0,0,0h13.9c3,0,5.6,2.6,5.6,5.6v3.9h4.1v-3.9c0-5.3-4.3-9.7-9.7-9.7Z"/>
    <path class="st2" d="M78.4,55.8c2.4,0,4.7-.9,6.4-2.7,3.6-3.6,3.6-9.3,0-12.9-1.7-1.7-4-2.7-6.4-2.7s-4.7.9-6.4,2.7c-3.6,3.6-3.6,9.3,0,12.9,1.7,1.7,4,2.7,6.4,2.7ZM74.6,42.9c1-1,2.3-1.6,3.8-1.6s2.8.5,3.8,1.6c1,1,1.6,2.3,1.6,3.8s-.5,2.8-1.6,3.8c-1,1-2.3,1.6-3.8,1.6s-2.8-.5-3.8-1.6c-2.1-2.1-2.1-5.6,0-7.7Z"/>
  </g>
</svg>