<?xml version="1.0" encoding="UTF-8"?>
<svg id="Layer_1" xmlns="http://www.w3.org/2000/svg" version="1.1" viewBox="0 0 100 100">
  <!-- Generator: Adobe Illustrator 29.3.0, SVG Export Plug-In . SVG Version: 2.1.0 Build 146)  -->
  <defs>
    <style>
      .st0 {
        fill: #2ed88e;
      }

      .st1 {
        fill: #16303d;
      }

      .st2 {
        fill: #2e2d2c;
      }
    </style>
  </defs>
  <path class="st2" d="M84.2,24h0,0Z"/>
  <path class="st0" d="M74.7,70.6h0c.8-.3,2.2-1.8,3.6-3.2.5-.6,1.1-1.1,1.5-1.5v20.9h5.3v-20.9c.8.7,1.5,1.5,2.3,2.4.6.6,1.3,1.3,2,2,1.3,1,2.7.5,3.5-.4.8-.9,1.2-2.4,0-3.6l-9-9c-.7-.7-2.2-.7-3.1,0l-9.3,9.3c-.7.9-.6,2.1,0,3.1.7,1,2,1.3,3.1.9Z"/>
  <g>
    <path class="st1" d="M90,13.1H21.8c-1.6,0-2.8,1.3-2.8,2.8s1.3,2.8,2.8,2.8h67.6s0,29.1,0,29.1h.7c1.4.1,2.8.4,4.2.7l.9.2v-30.7c0-2.7-2.2-5-5-5Z"/>
    <path class="st1" d="M78.6,25H9.5c-2.5,0-4.5,2-4.5,4.5v39.6c0,2.5,2,4.5,4.5,4.5h52.6v-.7c0-1.4.1-2.8.4-4.1v-.8c.1,0-39.9,0-39.9,0-1.2-5.9-5.9-10.7-11.9-11.9v-12.8c6.2-1.2,11-6.2,12-12.5h54.7v19.3l1-.4c1.4-.5,2.7-.9,4.2-1.2h.6v-19c0-2.5-2-4.5-4.5-4.5ZM16.7,67.8h-6v-6c2.8.9,5.1,3.2,6,6ZM10.7,37.3v-6.6h6.2c-.8,3.1-3.1,5.7-6.2,6.6Z"/>
  </g>
  <g>
    <path class="st0" d="M44,36.9c-6.8,0-12.4,5.5-12.4,12.4s5.5,12.4,12.4,12.4,12.4-5.5,12.4-12.4-5.5-12.4-12.4-12.4ZM44,58.6c-5.1,0-9.3-4.2-9.3-9.3s4.2-9.3,9.3-9.3,9.3,4.2,9.3,9.3-4.2,9.3-9.3,9.3Z"/>
    <path class="st0" d="M44,45.6h0c.3,0,.6.1.8.3.2.2.3.3.3.5,0,.7.6,1.2,1.2,1.2s1.2-.6,1.2-1.2c0-.9-.4-1.8-1.1-2.4-.4-.3-.8-.5-1.2-.7v-.3c0-.7-.6-1.2-1.2-1.2s-1.2.6-1.2,1.2v.3c-.5.2-.9.4-1.2.7-.7.6-1.1,1.5-1.1,2.4,0,.9.4,1.8,1.1,2.4.6.6,1.3,1,1.9,1.3.3.2.5.3.8.5.4.3.7.5.8.6.1.2.2.3.2.4,0,.2,0,.3-.3.5-.2.2-.5.3-.8.3h0c-.3,0-.6-.1-.8-.3-.2-.2-.3-.3-.3-.5,0-.7-.6-1.2-1.2-1.2s-1.2.6-1.2,1.2c0,.9.4,1.8,1.1,2.4.4.3.8.5,1.2.7v.3c0,.7.6,1.2,1.2,1.2s1.2-.6,1.2-1.2v-.3c.5-.2.9-.4,1.2-.7.7-.6,1.1-1.5,1.1-2.4,0-.9-.4-1.7-1.1-2.4-.6-.5-1.2-.9-1.8-1.3-.3-.2-.6-.3-.8-.5-.4-.3-.7-.5-.8-.7-.1-.2-.2-.3-.2-.5,0-.2,0-.3.3-.5.2-.2.5-.3.8-.3Z"/>
  </g>
</svg>