<?xml version="1.0" encoding="UTF-8"?>
<svg id="Layer_1" xmlns="http://www.w3.org/2000/svg" version="1.1" viewBox="0 0 100 100">
  <!-- Generator: Adobe Illustrator 29.3.0, SVG Export Plug-In . SVG Version: 2.1.0 Build 146)  -->
  <defs>
    <style>
      .st0 {
        fill: #17303d;
      }

      .st1 {
        fill: #2ed88e;
      }
    </style>
  </defs>
  <rect class="st1" x="45" y="65.1" width="10.4" height="10.4"/>
  <rect class="st1" x="65.9" y="65.1" width="10.4" height="10.4"/>
  <rect class="st1" x="23.5" y="65.1" width="10.4" height="10.4"/>
  <rect class="st1" x="65.9" y="43.6" width="10.4" height="10.4"/>
  <rect class="st1" x="45" y="43.6" width="10.4" height="10.4"/>
  <rect class="st1" x="23.5" y="43.6" width="10.4" height="10.4"/>
  <path class="st0" d="M78.7,20.5c2.2,0,3.9-1.8,3.9-3.9v-5.7c0-2.2-1.8-3.9-3.9-3.9s-3.9,1.8-3.9,3.9v5.7c0,2.2,1.8,3.9,3.9,3.9Z"/>
  <path class="st0" d="M21.5,20.5c2.2,0,3.9-1.8,3.9-3.9v-5.7c0-2.2-1.8-3.9-3.9-3.9s-3.9,1.8-3.9,3.9v5.7c0,2.2,1.8,3.9,3.9,3.9Z"/>
  <path class="st0" d="M95,22.9c-.1-3.8-1.4-6.4-3.9-7.8-1.3-.9-3.1-1.5-5.3-1.3-.1,0-.2,0-.3,0,0,0,0,0,0,0,0,0,0,0,0,0-.2,1.9.6,9.4-7.2,9.4-1.3,0-2.3-.3-3.1-.7-1.9-1.2-3.5-3.6-3.2-8.6h0s0,0,0,0h-21.8s-21.8,0-21.8,0c0,0,0,0,0,0h0c.3,5-1.3,7.5-3.2,8.6-.8.4-1.8.6-3.1.7-7.7,0-7-7.4-7.2-9.4,0,0,0,0,0,0,0,0,0,0,0,0-.1,0-.2,0-.3,0-2.2-.2-3.9.4-5.3,1.3-2.5,1.4-3.8,4.1-3.9,7.8,0,2.8,0,6.2,0,9.7,0,4.6,0,9.9,0,15.5v4.5c0,13.4.1,26.8.1,30.7,0,5.2,2.3,8.5,6.6,9.6.2,0,1,.1,2.2.1,0,0,0,0,0,0,0,0,0,0,0,0,6.4.2,25.1.2,42.6.2,11.1,0,21.2,0,27-.1.9,0,1.7,0,2.5,0,0,0,0,0,0,0,1.3,0,2.1,0,2.3-.1,4.3-1,6.6-4.3,6.6-9.6,0-3.9.1-17.3.1-30.7v-4.5c0-5.5,0-10.9,0-15.5,0-3.5,0-6.9,0-9.7ZM12.8,85.4c0-10.9,0-31,0-42.5,0-4.5,0-7.8,0-8.7,1.3,0,19.2,0,37.1,0,17.9,0,35.8,0,37.1,0,0,.9,0,4.2,0,8.7,0,11.5,0,31.6,0,42.5-1.5,0-19.4,0-37.2,0-17.8,0-35.7,0-37.2,0Z"/>
</svg>