<?xml version="1.0" encoding="UTF-8"?>
<svg id="Layer_1" xmlns="http://www.w3.org/2000/svg" version="1.1" viewBox="0 0 100 100">
  <!-- Generator: Adobe Illustrator 29.3.0, SVG Export Plug-In . SVG Version: 2.1.0 Build 146)  -->
  <defs>
    <style>
      .st0 {
        fill: #2ed88e;
      }

      .st1 {
        fill: #16303d;
      }
    </style>
  </defs>
  <path class="st1" d="M50,5C25.2,5,5,25.2,5,50s20.2,45,45,45,45-20.2,45-45S74.8,5,50,5ZM86,50c0,19.9-16.2,36-36,36S14,69.9,14,50,30.1,14,50,14s36,16.2,36,36Z"/>
  <path class="st0" d="M68.8,61.7h0c-.2-.6-.6-.9-1.3-1.4l-.5-.3c0,0-5.1-3.7-6.1-4.3-.7-.4-1.7-1-2.9.2-.7.7-2.4,2.2-3.7,3.2-.4.4-.8.4-1.5-.1-.2-.1-.3-.2-.6-.4h0c-1.2-.8-3.7-2.4-6.3-5.6-2.3-2.9-3.7-6.2-4.2-7.5-.2-.6,0-.8.6-1.3.3-.2.7-.6,1.1-.9h0c.2-.2.4-.4.6-.6.5-.4.8-.8,1.1-1.3l.2-.3c.6-.8.4-1.6.3-2.2-.1-.3-.7-2.8-1.2-5.1l-.6-2.6c-.4-1.6-1-2.2-2.1-2.3,0,0,0,0-.2,0-.3,0-.5-.1-.9-.2h0c-.3,0-.6-.2-1-.2h-.1c-.6,0-1.8,0-3.1.9l-.2.2c-1.2.9-3.9,3-4.7,7.6-.8,4.6,1.6,9.6,2.3,11,0,0,0,.2.1.3,3.5,7.8,8.5,13.9,14.1,17.3,5.6,3.4,8,4.3,9.4,4.5.5,0,.9,0,1.3,0,.3,0,.5,0,.8,0,1.9.1,6.4-1.3,7.8-3.8,1.1-2,1.6-4,1.4-4.8Z"/>
</svg>