<?xml version="1.0" encoding="UTF-8"?>
<svg id="Layer_1" xmlns="http://www.w3.org/2000/svg" version="1.1" viewBox="0 0 100 100">
  <!-- Generator: Adobe Illustrator 29.3.0, SVG Export Plug-In . SVG Version: 2.1.0 Build 146)  -->
  <defs>
    <style>
      .st0 {
        fill: #2ed88e;
      }

      .st1 {
        fill: #16303d;
      }
    </style>
  </defs>
  <path class="st1" d="M82,18c-8.5-8.5-19.6-13-32-13s-23.5,4.5-32,13h0c-8.4,8.4-13,19.8-13,32s4.6,23.6,13,32c8.5,8.5,19.6,13,32,13s23.5-4.5,32-13c8.5-8.5,13-19.6,13-32s-4.5-23.5-13-32ZM75.5,75.5c-6.7,6.7-15.5,10.3-25.5,10.3s-18.7-3.6-25.5-10.3c-6.7-6.7-10.3-15.7-10.3-25.5s3.7-18.8,10.3-25.5h0c6.7-6.7,15.5-10.3,25.5-10.3s18.7,3.6,25.5,10.3c6.7,6.7,10.3,15.5,10.3,25.5s-3.6,18.7-10.3,25.5Z"/>
  <path class="st0" d="M66.6,61.6l-11.6-11.6,11.6-11.6c.7-.7,1-1.6,1-2.5,0-1-.4-1.8-1-2.5-.7-.7-1.6-1-2.5-1h0c-1,0-1.8.4-2.5,1l-11.6,11.6-11.6-11.6c-.7-.7-1.6-1-2.5-1h0c-1,0-1.8.4-2.5,1-.7.7-1,1.6-1,2.5,0,1,.4,1.8,1,2.5l11.6,11.6-11.6,11.6c-1.4,1.4-1.4,3.7,0,5,1.4,1.4,3.7,1.4,5,0l11.6-11.6,11.7,11.7c.7.7,1.6,1,2.5,1,.9,0,1.9-.4,2.6-1.1,1.4-1.4,1.3-3.7,0-5Z"/>
</svg>