<?xml version="1.0" encoding="UTF-8"?>
<svg id="Layer_1" xmlns="http://www.w3.org/2000/svg" version="1.1" viewBox="0 0 100 100">
  <!-- Generator: Adobe Illustrator 29.3.0, SVG Export Plug-In . SVG Version: 2.1.0 Build 146)  -->
  <defs>
    <style>
      .st0 {
        fill: #2ed88e;
      }

      .st1 {
        fill: #16303d;
      }
    </style>
  </defs>
  <polygon class="st0" points="90 37.7 90 47.1 90 48.4 88.7 48.4 11.3 48.4 10 48.4 10 47.1 10 37.7 10 36.3 11.3 36.3 88.7 36.3 90 36.3 90 37.7 90 37.7"/>
  <path class="st1" d="M23.1,53.6c1,0,1.9.2,2.8.5,0,0,.2,0,.2,0-.3.3-.7.5-1,.8-1.8,1.8-2.8,4.2-2.8,6.7s1,4.9,2.8,6.7c.3.3.6.6,1,.8,0,0-.2,0-.2,0-.9.3-1.8.5-2.8.5-2.3,0-4.3-.9-5.8-2.4-1.5-1.5-2.4-3.5-2.4-5.8s.9-4.3,2.4-5.8c1.5-1.5,3.5-2.4,5.8-2.4h0Z"/>
  <path class="st1" d="M26.2,56c1.5-1.5,3.5-2.4,5.8-2.4s4.3.9,5.8,2.4c1.5,1.5,2.4,3.5,2.4,5.8s-.9,4.3-2.4,5.8c-1.5,1.5-3.5,2.4-5.8,2.4s-4.3-.9-5.8-2.4c-1.5-1.5-2.4-3.5-2.4-5.8s.9-4.3,2.4-5.8h0Z"/>
  <path class="st1" d="M93,22.1c-1.6-1.6-3.8-2.5-6.1-2.5H13.2c-2.3,0-4.5.9-6.1,2.5-1.6,1.6-2.5,3.8-2.5,6.1v43.5c0,2.3.9,4.5,2.5,6.1,1.6,1.6,3.8,2.5,6.1,2.5h73.6c2.3,0,4.5-.9,6.1-2.5s2.5-3.8,2.5-6.1V28.3c0-2.3-.9-4.5-2.5-6.1ZM88.7,71.7c0,.5-.2,1-.6,1.4-.4.4-.8.6-1.3.6H13.2c-.5,0-1-.2-1.4-.6s-.6-.8-.6-1.3V28.3c0-.5.2-1,.6-1.4.4-.4.8-.6,1.4-.6h73.6c.5,0,1,.2,1.4.6.4.4.6.8.6,1.4v43.5Z"/>
</svg>