<?xml version="1.0" encoding="UTF-8"?>
<svg id="Layer_1" xmlns="http://www.w3.org/2000/svg" version="1.1" viewBox="0 0 100 100">
  <!-- Generator: Adobe Illustrator 29.3.0, SVG Export Plug-In . SVG Version: 2.1.0 Build 146)  -->
  <defs>
    <style>
      .st0 {
        fill: #2ed88e;
      }

      .st1 {
        fill: #16303d;
      }
    </style>
  </defs>
  <g>
    <rect class="st0" x="82.7" y="67.2" width="7.4" height="16.9" transform="translate(-28.2 83.2) rotate(-45)"/>
    <path class="st1" d="M83.9,56.7c0-9.6-7.5-17.1-17.1-17.1s-17.1,7.7-17.1,17.1,7.5,17.1,17.1,17.1,17.1-7.5,17.1-17.1ZM66.8,68.7c-6.6,0-12-5.4-12-12s5.4-12,12-12,12,5.4,12,12-5.4,12-12,12Z"/>
  </g>
  <g>
    <polygon class="st0" points="82.8 34.4 83.3 34.4 83.3 28.2 82.8 28.2 10.9 28.2 10.4 28.2 10.4 34.4 10.9 34.4 82.8 34.4"/>
    <path class="st1" d="M12.6,66c-.6,0-1.2-.2-1.6-.7-.4-.4-.7-1-.7-1.6V23.3c0-.6.2-1.2.7-1.6.4-.4,1-.7,1.6-.7h68.5c.6,0,1.2.2,1.6.7.4.4.7,1,.7,1.6v20.4c1.9.4,3.6.9,5.4,1.6v-22c0-2-.8-3.9-2.2-5.4-1.4-1.4-3.3-2.2-5.4-2.2H12.6c-2,0-3.9.8-5.4,2.2-1.4,1.4-2.2,3.3-2.2,5.4v40.4c0,2,.8,3.9,2.2,5.4,1.4,1.4,3.3,2.2,5.4,2.2h36.1c0-1.8.3-3.6.7-5.4H12.6Z"/>
  </g>
</svg>