<svg width="70" height="70" viewBox="0 0 70 70" fill="none" xmlns="http://www.w3.org/2000/svg">
<path d="M64.5312 10.9375H5.46875C4.01835 10.9375 2.62735 11.5137 1.60176 12.5393C0.57617 13.5648 0 14.9558 0 16.4062L0 53.5937C0 55.0442 0.57617 56.4351 1.60176 57.4607C2.62735 58.4863 4.01835 59.0625 5.46875 59.0625H64.5312C65.9817 59.0625 67.3726 58.4863 68.3982 57.4607C69.4238 56.4351 70 55.0442 70 53.5937V16.4062C70 14.9558 69.4238 13.5648 68.3982 12.5393C67.3726 11.5137 65.9817 10.9375 64.5312 10.9375ZM5.46875 16.4062H14.2187C14.1579 17.4874 13.8819 18.5454 13.407 19.5185C12.932 20.4916 12.2676 21.3601 11.4527 22.0732C10.6378 22.7862 9.68877 23.3294 8.66125 23.671C7.63373 24.0126 6.54836 24.1457 5.46875 24.0625V16.4062ZM5.46875 53.5937V45.9375C6.54836 45.8543 7.63373 45.9874 8.66125 46.329C9.68877 46.6706 10.6378 47.2138 11.4527 47.9268C12.2676 48.6399 12.932 49.5084 13.407 50.4815C13.8819 51.4546 14.1579 52.5126 14.2187 53.5937H5.46875ZM64.5312 53.5937H56C56.1243 51.4502 57.0907 49.4426 58.6887 48.0085C60.2867 46.5744 62.3868 45.83 64.5312 45.9375V53.5937ZM64.5312 40.4687C62.75 40.4104 60.9746 40.7036 59.3068 41.3318C57.6389 41.9599 56.1112 42.9107 54.811 44.1296C53.5108 45.3486 52.4635 46.8118 51.7292 48.4358C50.9949 50.0597 50.5878 51.8124 50.5312 53.5937H19.4687C19.4122 51.8124 19.0051 50.0597 18.2708 48.4358C17.5364 46.8118 16.4892 45.3486 15.189 44.1296C13.8888 42.9107 12.3611 41.9599 10.6932 41.3318C9.02536 40.7036 7.25003 40.4104 5.46875 40.4687V29.5312C7.25003 29.5896 9.02536 29.2964 10.6932 28.6682C12.3611 28.0401 13.8888 27.0893 15.189 25.8704C16.4892 24.6514 17.5364 23.1882 18.2708 21.5642C19.0051 19.9403 19.4122 18.1876 19.4687 16.4062H50.5312C50.5878 18.1876 50.9949 19.9403 51.7292 21.5642C52.4635 23.1882 53.5108 24.6514 54.811 25.8704C56.1112 27.0893 57.6389 28.0401 59.3068 28.6682C60.9746 29.2964 62.75 29.5896 64.5312 29.5312V40.4687ZM64.5312 24.0625C62.3868 24.17 60.2867 23.4256 58.6887 21.9915C57.0907 20.5574 56.1243 18.5498 56 16.4062H64.5312V24.0625Z" fill="#16303D"/>
<path d="M35 21.875C33.2187 21.8166 31.4434 22.1099 29.7755 22.7381C28.1077 23.3662 26.5799 24.3169 25.2797 25.5359C23.9795 26.7548 22.9323 28.2181 22.198 29.842C21.4636 31.4659 21.0566 33.2187 21 35C21.0566 36.7814 21.4636 38.5341 22.198 40.158C22.9323 41.7819 23.9795 43.2452 25.2797 44.4641C26.5799 45.6831 28.1077 46.6338 29.7755 47.262C31.4434 47.8901 33.2187 48.1834 35 48.125C36.7813 48.1834 38.5566 47.8901 40.2245 47.262C41.8924 46.6338 43.4201 45.6831 44.7203 44.4641C46.0205 43.2452 47.0677 41.7819 47.802 40.158C48.5364 38.5341 48.9435 36.7814 49 35C48.9435 33.2187 48.5364 31.4659 47.802 29.842C47.0677 28.2181 46.0205 26.7548 44.7203 25.5359C43.4201 24.3169 41.8924 23.3662 40.2245 22.7381C38.5566 22.1099 36.7813 21.8166 35 21.875ZM35 42.6563C32.8555 42.7638 30.7555 42.0193 29.1575 40.5852C27.5595 39.1511 26.5931 37.1436 26.4688 35C26.5931 32.8565 27.5595 30.8489 29.1575 29.4148C30.7555 27.9807 32.8555 27.2363 35 27.3438C36.0796 27.2606 37.165 27.3936 38.1925 27.7352C39.22 28.0768 40.169 28.6201 40.9839 29.3331C41.7988 30.0461 42.4632 30.9147 42.9382 31.8877C43.4132 32.8608 43.6892 33.9189 43.75 35C43.6892 36.0811 43.4132 37.1392 42.9382 38.1123C42.4632 39.0854 41.7988 39.9539 40.9839 40.6669C40.169 41.38 39.22 41.9232 38.1925 42.2648C37.165 42.6064 36.0796 42.7395 35 42.6563Z" fill="#2ED88E"/>
</svg>
