<?xml version="1.0" encoding="UTF-8"?>
<svg id="Layer_1" xmlns="http://www.w3.org/2000/svg" version="1.1" viewBox="0 0 100 100">
  <!-- Generator: Adobe Illustrator 29.3.0, SVG Export Plug-In . SVG Version: 2.1.0 Build 146)  -->
  <defs>
    <style>
      .st0 {
        fill: #2ed88e;
      }

      .st1 {
        fill: #16303d;
      }
    </style>
  </defs>
  <g>
    <path class="st1" d="M94.8,40.9v-.4c-.7-2.4-2.6-4.1-5.1-4.5h-.2s-79.2,0-79.2,0c-1.6,0-3,1.3-3.5,1.9-.5.6-1.8,2.1-1.7,3.8v36.4s0,.1,0,.1c.2,3.1,2.7,5.5,5.8,5.6h78.6s.1,0,.1,0c2.3-.2,4.4-1.9,5.2-4.3v-.2c0,0,.1-.4.1-.4.3-12.7.3-25.4,0-37.9ZM88.4,77.2H11.7c0,0-.1-34.8-.1-34.8h76.8s0,34.8,0,34.8Z"/>
    <path class="st1" d="M14.5,72l.4.2h69.4s.5-.4.5-.4c1-.7,1.6-1.9,1.5-3,0-1.2-.8-2.1-1.9-2.7l-.4-.2H15.7s-.2,0-.2,0h-.4c-1.3.5-2.2,1.7-2.3,3-.1,1.3.6,2.5,1.8,3.1Z"/>
    <path class="st1" d="M15.8,64c0,0,.1,0,.1,0h34.2c0,0,.2,0,.2,0h.4c1.3-.5,2.1-1.7,2.1-3.1,0-1.5-.8-2.7-2.1-3.1h-.3c0-.1-34.9-.1-34.9-.1h-.4l-.5.2c-.2.1-.6.3-1,.7-.9.9-1.2,2.5-.6,3.7.5,1.1,1.6,1.8,2.8,1.8Z"/>
  </g>
  <path class="st0" d="M29.6,18.8c-2.9.4-4.4,3.4-3.2,6,1.5,2,3.7,3.4,5.5,5l5.2-6.2-4.8-4.1c-.8-.5-1.7-.8-2.7-.6ZM68.1,47.4l5.1,10.6c.2.7-.4,1.5-1.1,1.5-3.5-.9-7.2-1.6-10.6-2.7s-1.7-.6-2.4-1.1-1-.7-1.5-1.1c-2.8-2.2-5.4-4.5-8.1-6.8-.1-.1-.3-.2-.4-.4-1-.9-2-1.7-3-2.6-6.5-5.7-13.8-11.1-20.1-16.9-6.6-6.2,1.5-15.5,8.5-10l33.7,29.5Z"/>
</svg>