<?xml version="1.0" encoding="UTF-8"?>
<svg id="Layer_1" xmlns="http://www.w3.org/2000/svg" version="1.1" viewBox="0 0 100 100">
  <!-- Generator: Adobe Illustrator 29.3.0, SVG Export Plug-In . SVG Version: 2.1.0 Build 146)  -->
  <defs>
    <style>
      .st0 {
        fill: #2ed88e;
      }

      .st1 {
        fill: #16303d;
      }
    </style>
  </defs>
  <path class="st1" d="M91.1,40.5l-6.4-1.6c-.7-2-1.5-3.9-2.4-5.7l3.3-5.6c1.3-2,1-4.6-.7-6.3l-6.4-6.4c-1.7-1.7-4.3-2-6.3-.7l-5.6,3.3c-1.8-.9-3.7-1.7-5.7-2.4l-1.6-6.3c-.5-2.3-2.6-3.9-5-3.9h-9c-2.3,0-4.3,1.5-5,3.8l-1.6,6.4c-2,.6-3.9,1.4-5.7,2.4l-5.6-3.4c-2-1.3-4.7-1-6.3.7l-6.3,6.4c-1.6,1.6-2,4.2-.8,6.3l3.4,5.6c-1,1.9-1.8,3.8-2.4,5.7l-6.3,1.6c-2.3.5-3.9,2.6-3.9,5v9c0,2.3,1.5,4.3,3.8,5l6.5,1.6c.6,2,1.4,3.9,2.4,5.7l-3.4,5.7c-1.2,2-.8,4.6.8,6.2l6.3,6.3c1.6,1.6,4.1,2,6.2.9l5.7-3.5c1.9,1,3.8,1.7,5.7,2.4l1.5,6.4h0c.6,2.4,2.6,3.9,5,3.9h9c2.4,0,4.4-1.7,5-3.9l1.6-6.3c1.9-.6,3.8-1.4,5.7-2.4l5.7,3.4c2,1.2,4.6.8,6.2-.8l6.4-6.4c1.7-1.7,2-4.3.7-6.3l-3.4-5.6c.9-1.8,1.7-3.7,2.4-5.7l6.4-1.6h.1c2.2-.7,3.7-2.7,3.7-5v-9c0-2.4-1.6-4.4-3.9-5ZM78.6,57.2c-.8,2.9-1.9,5.5-3.2,7.8l-1.1,1.8,4.8,8-4.3,4.3-7.8-4.7-1.8,1c-2.6,1.5-5.2,2.6-7.8,3.2l-2,.5-2.2,8.9h-6.1l-2.2-9-2-.5c-2.7-.7-5.3-1.7-7.8-3.2l-1.8-1.1-7.9,4.7-4.3-4.3,4.8-7.9-1.1-1.8c-1.5-2.4-2.6-5-3.2-7.7l-.5-2-9-2.2v-6.1l8.9-2.2.5-2c.7-2.7,1.8-5.3,3.3-7.8l1.1-1.8-4.8-7.9,4.3-4.3,7.9,4.8,1.8-1.1c2.3-1.4,4.9-2.5,7.8-3.3l2-.5,2.2-8.9h6.1l2.2,8.9,2,.5c2.8.8,5.5,1.9,7.8,3.3l1.8,1.1,7.9-4.8,4.3,4.3-4.8,7.9,1.1,1.8c1.4,2.4,2.5,5,3.3,7.8l.5,2,8.9,2.2v6.1l-8.9,2.2-.5,2Z"/>
  <g>
    <path class="st0" d="M57.2,51.2h-14.3c-5.7,0-10.3,4.6-10.3,10.3v4.4h4.9v-4.4c0-2.9,2.5-5.4,5.4-5.4h14.3c2.9,0,5.4,2.5,5.4,5.4v4.4h4.9v-4.4c0-5.7-4.6-10.3-10.3-10.3Z"/>
    <path class="st0" d="M50,49.9c2.6,0,5.1-1,6.9-2.9,1.8-1.8,2.9-4.3,2.9-6.9s-1-5.1-2.9-6.9c-1.8-1.8-4.3-2.9-6.9-2.9s-5.1,1-6.9,2.9c-1.8,1.8-2.9,4.3-2.9,6.9s1,5.1,2.9,6.9c1.8,1.8,4.3,2.9,6.9,2.9ZM44.8,40.2c0-1.4.5-2.8,1.5-3.7,1-1,2.3-1.5,3.7-1.5s2.7.5,3.7,1.5c1,1,1.5,2.3,1.5,3.7s-.5,2.7-1.5,3.7-2.3,1.5-3.7,1.5-2.7-.5-3.7-1.5-1.5-2.3-1.5-3.7Z"/>
  </g>
</svg>