<?xml version="1.0" encoding="UTF-8"?>
<svg id="Layer_1" xmlns="http://www.w3.org/2000/svg" version="1.1" viewBox="0 0 100 100">
  <!-- Generator: Adobe Illustrator 29.3.0, SVG Export Plug-In . SVG Version: 2.1.0 Build 146)  -->
  <defs>
    <style>
      .st0 {
        fill: #17303d;
      }

      .st1 {
        fill: #2ed88e;
      }
    </style>
  </defs>
  <path class="st0" d="M88.8,20h-19.6l-1.8-9c-.8-3.8-4.1-6.5-8-6.6h-18.8c-3.9,0-7.2,2.8-8,6.6l-1.8,9H11.2c-2,0-3.7,1.7-3.7,3.7s1.7,3.7,3.7,3.7h3.1l5.4,56.7c.6,6.5,6,11.5,12.5,11.5h35.6c6.6,0,11.9-4.9,12.5-11.4l5.4-56.7h3.1c2,0,3.7-1.7,3.6-3.7,0-2-1.6-3.6-3.7-3.6ZM78.3,27.4l-5.3,56h0c-.2,2.7-2.5,4.8-5.2,4.8h-35.5c-2.7,0-5-2-5.2-4.8l-5.3-56c6.7,0,21.1,0,34,0h22.6ZM38.3,20l1.5-7.5c0-.4.4-.6.8-.6h18.8c.4,0,.7.3.8.6l1.5,7.5h-23.4Z"/>
  <g>
    <path class="st1" d="M50,39.5c-2.1,0-3.8,1.7-3.8,3.8v30.5c0,2.1,1.7,3.8,3.8,3.8s3.8-1.7,3.8-3.8v-30.5c0-2.1-1.7-3.8-3.8-3.8Z"/>
    <path class="st1" d="M36.3,39.5c-2.1,0-3.8,1.7-3.8,3.8v30.5c0,2.1,1.7,3.8,3.8,3.8s3.8-1.7,3.8-3.8v-30.5c0-2.1-1.7-3.8-3.8-3.8Z"/>
    <path class="st1" d="M63.8,39.5c-2.1,0-3.8,1.7-3.8,3.8v30.5c0,2.1,1.7,3.8,3.8,3.8s3.8-1.7,3.8-3.8v-30.5c0-2.1-1.7-3.8-3.8-3.8Z"/>
  </g>
</svg>