<?xml version="1.0" encoding="UTF-8"?>
<svg id="Layer_1" xmlns="http://www.w3.org/2000/svg" version="1.1" viewBox="0 0 100 100">
  <!-- Generator: Adobe Illustrator 29.3.0, SVG Export Plug-In . SVG Version: 2.1.0 Build 146)  -->
  <defs>
    <style>
      .st0 {
        fill: #17303d;
      }

      .st1 {
        fill: #2ed88e;
      }
    </style>
  </defs>
  <path class="st1" d="M91.7,14.4c-.1-3.9-4-6.5-7.7-5.1-2.9,1.7-5.1,4.5-7.5,6.8l7.7,7.9,6.3-5.9c.8-1.1,1.3-2.2,1.2-3.6ZM47.5,62.6l-15.1,5.4c-1,.2-1.9-.7-1.9-1.7,1.7-4.6,3.2-9.5,5.1-14s1.1-2.3,1.8-3.1,1-1.2,1.7-1.9c3.3-3.4,6.9-6.7,10.3-10,.2-.2.4-.4.6-.5,1.3-1.2,2.6-2.4,3.9-3.7,8.6-8,16.9-17.2,25.7-24.8s20.7,4.2,12.4,12.9l-44.6,41.5Z"/>
  <path class="st0" d="M83.6,64.6c-2.5,0-4.5,2-4.5,4.5v16.5H13.9V20.4h16.5c2.5,0,4.5-2,4.5-4.5s-2-4.5-4.5-4.5H9.5c-2.5,0-4.5,2-4.5,4.5v74.1c0,2.5,2,4.5,4.5,4.5h74.1c2.5,0,4.5-2,4.5-4.5v-21c0-2.5-2-4.5-4.5-4.5Z"/>
</svg>