<?xml version="1.0" encoding="UTF-8"?>
<svg id="Layer_1" xmlns="http://www.w3.org/2000/svg" version="1.1" viewBox="0 0 100 100">
  <!-- Generator: Adobe Illustrator 29.3.0, SVG Export Plug-In . SVG Version: 2.1.0 Build 146)  -->
  <defs>
    <style>
      .st0 {
        fill: #2ed88e;
      }

      .st1 {
        fill: #16303d;
      }
    </style>
  </defs>
  <path class="st0" d="M62.4,35.8c.6,1.3,3,3.7,5.4,6.1,1.2,1.2,2.4,2.4,3.2,3.3h-37v8.5h37c-1.4,1.6-3,3.1-4.7,4.7-1.1,1.1-2.3,2.2-3.5,3.4-1.6,2.1-.8,4.4.6,5.6,1.4,1.3,3.8,1.9,5.8,0l15.8-15.8c1.1-1.1,1.1-3.4,0-4.9l-16.2-16.1c-1.5-1.1-3.4-1-4.9.2-1.5,1.2-2.2,3.1-1.5,4.9,0,0,0,0,0,.1Z"/>
  <path class="st1" d="M41.8,85.5h-17.6V14.3h17.6V4.4h-22.6c-2.6,0-5,2.3-5,5v81.1c0,2.6,2.3,5,5,5h22.6s0-10,0-10Z"/>
</svg>