<?xml version="1.0" encoding="UTF-8"?>
<svg id="Layer_1" xmlns="http://www.w3.org/2000/svg" version="1.1" viewBox="0 0 100 100">
  <!-- Generator: Adobe Illustrator 29.3.0, SVG Export Plug-In . SVG Version: 2.1.0 Build 146)  -->
  <defs>
    <style>
      .st0 {
        fill: #2ed88e;
      }

      .st1 {
        fill: #16303d;
      }
    </style>
  </defs>
  <g>
    <path class="st0" d="M50,39.8c1.6,0,2.9-.5,4-1.5,1.1-1,1.6-2.2,1.6-3.7s-.5-2.7-1.6-3.7c-1-1-2.4-1.5-4-1.5s-3,.5-4,1.5c-1.1,1-1.6,2.2-1.6,3.7s.5,2.7,1.6,3.7c1,1,2.4,1.5,4,1.5Z"/>
    <rect class="st0" x="45.2" y="42.5" width="9.7" height="28"/>
  </g>
  <path class="st1" d="M82,18c-8.5-8.5-19.6-13-32-13s-23.5,4.5-32,13h0c-8.4,8.4-13,19.8-13,32s4.6,23.6,13,32c8.5,8.5,19.6,13,32,13s23.5-4.5,32-13c8.5-8.5,13-19.6,13-32s-4.5-23.5-13-32ZM75.5,75.5c-6.7,6.7-15.5,10.3-25.5,10.3s-18.7-3.6-25.5-10.3c-6.7-6.7-10.3-15.7-10.3-25.5s3.7-18.8,10.3-25.5h0c6.7-6.7,15.5-10.3,25.5-10.3s18.7,3.6,25.5,10.3c6.7,6.7,10.3,15.5,10.3,25.5s-3.6,18.7-10.3,25.5Z"/>
</svg>