<?xml version="1.0" encoding="UTF-8"?>
<svg id="Layer_1" xmlns="http://www.w3.org/2000/svg" version="1.1" viewBox="0 0 100 100">
  <!-- Generator: Adobe Illustrator 29.3.0, SVG Export Plug-In . SVG Version: 2.1.0 Build 146)  -->
  <defs>
    <style>
      .st0 {
        fill: #2ed88e;
      }

      .st1 {
        fill: #16303d;
      }
    </style>
  </defs>
  <path class="st0" d="M41.2,45.4c-1,0-1.9-.6-2.4-1.7l-2-4.5h-10.9l-2.1,4.6c-.4,1-1.3,1.6-2.3,1.6s-2.4-1.1-2.4-2.4,0-.8.3-1.2l9.2-20.1c.5-1.2,1.5-1.8,2.7-1.8h.1c1.2,0,2.2.7,2.7,1.9l9.2,20.1c.2.4.3.8.3,1.1,0,1.3-1.1,2.4-2.4,2.4ZM28,34.5h6.8l-3.4-7.5-3.4,7.5Z"/>
  <path class="st1" d="M84.4,91.3c-.5,0-1.1-.2-1.5-.5l-23.2-15.7h-14.1c-1.9,0-3.5-1.6-3.5-3.5v-16.1h-1.9l-23.2,15.7c-.4.3-1,.5-1.5.5s-1.1-.2-1.5-.5c-.9-.6-1.3-1.8-1.1-2.8l3.1-12.8h-7.5c-1.9,0-3.5-1.6-3.5-3.5V12.3c0-1.9,1.6-3.5,3.5-3.5h45.8c1.9,0,3.5,1.6,3.5,3.5v16.1h33.6c1.9,0,3.5,1.6,3.5,3.5v39.7c0,1.9-1.6,3.5-3.5,3.5h-7.5l3.1,12.8c.3,1.1-.2,2.2-1.1,2.8-.5.3-1,.5-1.5.5ZM47.5,69.8h13c.5,0,1.1.2,1.5.5l18.1,12.2-2.2-9.4c-.2-.8,0-1.6.5-2.3.5-.7,1.3-1,2.1-1h9v-36h-31.7v18.2c0,1.9-1.6,3.5-3.5,3.5h-6.8v14.3ZM10.4,50.1h9c.8,0,1.6.4,2.1,1,.5.7.7,1.5.5,2.3l-2.2,9.4,18.1-12.2c.4-.3,1-.5,1.5-.5h13V14.1H10.4v36Z"/>
  <path class="st0" d="M81.6,65.5c-3-.2-5.8-.8-8.3-2h-.2c0-.1-.2,0-.2,0-2.5,1.2-5.2,1.9-8.3,2,0,0,0,0-.1,0-1.2,0-2.3-1-2.3-2.2,0-1.3.9-2.4,2.2-2.4,1.2,0,2.3-.2,3.3-.5l.9-.2-.6-.6c-3.2-3.4-4.6-7.3-5.3-10.1v-.4h-.5c-1.3,0-2.3-1-2.3-2.3s1-2.3,2.3-2.3h8.6v-2.6c0-1.3,1-2.3,2.3-2.3s2.3,1,2.3,2.3v2.6h8.6c1.3,0,2.3,1,2.3,2.3s-1,2.3-2.3,2.3h-.4s0,.4,0,.4c-.7,2.7-2.1,6.7-5.3,10.1l-.6.6.9.2c1.1.2,2.2.4,3.3.5.6,0,1.2.3,1.6.8.4.5.6,1.1.6,1.7,0,1.2-1.1,2.2-2.3,2.2s0,0-.1,0ZM67.6,49.8c.8,2.3,2.3,5.6,5.2,7.9l.3.3.3-.3c2.9-2.4,4.5-5.6,5.2-7.9l.2-.7h-5.6c0,0-.1,0-.2,0s-.1,0-.2,0h0s-5.5,0-5.5,0l.2.7Z"/>
</svg>