<svg xmlns="http://www.w3.org/2000/svg" width="19.213" height="21.213" viewBox="0 0 19.213 21.213">
  <g id="Group_162941" data-name="Group 162941" transform="translate(-1.089)">
    <path id="Path_13533" data-name="Path 13533" d="M19.946,17.34c-2.278-1.018-2.365-5.388-2.366-5.5V8.91a6.823,6.823,0,0,0-4.218-6.281,2.666,2.666,0,0,0-5.332,0A6.823,6.823,0,0,0,3.811,8.91v2.932c0,.11-.088,4.48-2.366,5.5a.6.6,0,0,0-.342.671.6.6,0,0,0,.591.472H7.469a3.35,3.35,0,0,0,.9,1.73,3.213,3.213,0,0,0,4.659,0,3.349,3.349,0,0,0,.9-1.73H19.7a.6.6,0,0,0,.591-.472A.6.6,0,0,0,19.946,17.34Zm-3-2.093A6.609,6.609,0,0,0,18,17.286H3.386a6.608,6.608,0,0,0,1.059-2.04ZM10.7,1.2a1.458,1.458,0,0,1,1.4,1.043,6.985,6.985,0,0,0-2.8,0A1.458,1.458,0,0,1,10.7,1.2ZM5.02,11.845V8.91a5.676,5.676,0,0,1,11.351,0v2.94a12.354,12.354,0,0,0,.256,2.2H4.764A12.367,12.367,0,0,0,5.02,11.845ZM10.7,20.016a2.116,2.116,0,0,1-1.986-1.534h3.973A2.116,2.116,0,0,1,10.7,20.016Z" fill="#16303d"/>
    <path id="Path_13534" data-name="Path 13534" d="M10.5,4.091A4.626,4.626,0,0,0,5.88,8.712a.592.592,0,1,0,1.184,0A3.44,3.44,0,0,1,10.5,5.276a.592.592,0,1,0,0-1.184Z" fill="#2ed88e"/>
  </g>
</svg>
