<?xml version="1.0" encoding="UTF-8"?>
<svg id="Layer_1" xmlns="http://www.w3.org/2000/svg" version="1.1" viewBox="0 0 100 100">
  <!-- Generator: Adobe Illustrator 29.3.0, SVG Export Plug-In . SVG Version: 2.1.0 Build 146)  -->
  <defs>
    <style>
      .st0 {
        fill: #2ed88e;
      }

      .st1 {
        fill: #16303d;
      }
    </style>
  </defs>
  <g>
    <path class="st1" d="M66.9,77.8h-24.5c-.8,0-1.5-.2-2.2-.6l-26.3-17.4c-.7-.4-1.1-1.1-1.3-1.9-.2-.8,0-1.6.4-2.3.4-.7,1.1-1.1,1.9-1.3.8-.2,1.6,0,2.3.4l13.1,8.7,3.7-5.7-13.1-8.7c-2.2-1.4-4.8-2-7.4-1.4-2.6.5-4.8,2-6.2,4.2-1.4,2.2-2,4.8-1.4,7.4.5,2.6,2,4.8,4.2,6.2l26.3,17.4c1.8,1.2,3.8,1.8,5.9,1.8h23.9l16.2,10.7,3.7-5.7-16.7-11.1c-.8-.5-1.6-.8-2.5-.8Z"/>
    <path class="st1" d="M86.3,57.1c-7.7-10.8-19.8-11-28.4-6.4h-13.6c-5.3,0-9.7,4.3-9.7,9.7s4.3,9.7,9.7,9.7h17.2v-6.8h-17.2c-1.6,0-2.9-1.3-2.9-2.9s1.3-2.9,2.9-2.9h15.4l.8-.5c6.3-3.7,15.1-3.8,20.6,4.4l.3.4,9.1,6.1,3.7-5.7-7.9-5.2Z"/>
  </g>
  <path class="st0" d="M51.7,22.5c-.8-.5-1.6-1-2.3-1.4-1.3-.9-1.9-1.5-2.2-1.9-.4-.5-.5-.8-.5-1.3,0-.5.2-1,.7-1.4.6-.5,1.5-.8,2.4-.8h0c.9,0,1.8.3,2.4.8.5.4.7.9.7,1.4,0,1.9,1.6,3.5,3.5,3.5s3.5-1.6,3.5-3.5c0-2.6-1.2-5-3.2-6.7-1-.9-2.2-1.5-3.5-2v-1c0-1.9-1.6-3.5-3.5-3.5s-3.5,1.6-3.5,3.5v1c-1.3.4-2.5,1.1-3.5,2-2,1.7-3.2,4.2-3.2,6.7,0,2.5,1.1,5,3.2,7,1.6,1.6,3.6,2.7,5.3,3.8.8.5,1.5.9,2.2,1.4,1.3.9,1.9,1.5,2.2,1.8.4.5.5.8.5,1.2,0,.5-.2,1-.7,1.4-.6.5-1.5.8-2.4.8h0c-.9,0-1.8-.3-2.4-.8-.5-.4-.7-.9-.7-1.4,0-1.9-1.6-3.5-3.5-3.5s-3.5,1.6-3.5,3.5c0,2.6,1.2,5,3.2,6.7,1,.9,2.2,1.5,3.5,2v1c0,1.9,1.6,3.5,3.5,3.5s3.5-1.6,3.5-3.5v-1c1.3-.4,2.5-1.1,3.5-2,2-1.7,3.2-4.2,3.2-6.7,0-2.5-1.1-5-3.2-6.9-1.6-1.5-3.5-2.7-5.2-3.7Z"/>
</svg>