<?xml version="1.0" encoding="UTF-8"?>
<svg id="Layer_1" xmlns="http://www.w3.org/2000/svg" version="1.1" viewBox="0 0 100 100">
  <!-- Generator: Adobe Illustrator 29.3.0, SVG Export Plug-In . SVG Version: 2.1.0 Build 146)  -->
  <defs>
    <style>
      .st0 {
        fill: #2ed88e;
      }

      .st1 {
        fill: #16303d;
      }
    </style>
  </defs>
  <path class="st1" d="M18.2,23h0s0,0,0,0c0,0,0,0,0,0M82,22.9h0s0,0,0,0M18,25.3l32-13.3,32.1,13.3c0,1.5.1,3.7,0,6.3-.1,5.4-.7,12.6-2.5,20.2-3.6,15-11.6,30.4-29.2,36.5-18.8-6.9-26.9-22.5-30.4-37.1-1.7-7.5-2.2-14.5-2.3-19.8,0-2.6,0-4.7.2-6.2M50,7.7l1.5-3.6-1.5,3.6h0M50,3.5l-1.5.6L12.8,19l-2.1.9-.3,2.3,3.6.4c-3.4-.4-3.6-.4-3.6-.4s0,0,0,0h0s0,0,0,0h0s0,.2,0,.2c0,.1,0,.3,0,.5,0,.4,0,1.1-.2,1.9-.1,1.6-.2,3.9-.2,6.8,0,5.6.5,13.3,2.5,21.5,3.8,16.4,13.5,35.3,36.7,43.2l1.2-3.7h0s-1.2,3.7-1.2,3.7l1.2.4,1.2-.4c22.3-7,31.8-26.1,35.7-42.5,2-8.3,2.6-16.1,2.7-21.8,0-2.9,0-5.2,0-6.9,0-.8,0-1.5-.1-1.9,0-.2,0-.4,0-.5h0c0-.1,0-.2,0-.2h0s0,0,0,0c0,0,0,0,0,0,0,0-.3,0-3.6.3l3.6-.3-.2-2.4-2.2-.9L51.5,4.1l-1.5-.6"/>
  <path class="st0" d="M46.5,56.7l-2.4,2.4,2.4,2.4,2.4-2.4-2.4-2.4M63.8,34.6l-17.3,17.3-10.2-10.2-4.8,4.8,12.6,12.6,2.4-2.4,2.4,2.4,19.7-19.7-4.8-4.8"/>
</svg>