<?xml version="1.0" encoding="UTF-8"?>
<svg id="Layer_1" xmlns="http://www.w3.org/2000/svg" version="1.1" viewBox="0 0 100 100">
  <!-- Generator: Adobe Illustrator 29.3.0, SVG Export Plug-In . SVG Version: 2.1.0 Build 146)  -->
  <defs>
    <style>
      .st0 {
        fill: #2ed88e;
      }

      .st1 {
        fill: #16303d;
      }
    </style>
  </defs>
  <path class="st0" d="M73.2,26c-1.1-.7-2.2-1.3-3.2-2-1.8-1.2-2.6-2-3-2.6-.5-.7-.7-1.1-.7-1.8,0-.7.3-1.3,1-1.9.8-.7,2-1.1,3.3-1.1h0c1.3,0,2.5.4,3.3,1.1.7.6,1,1.2,1,1.9,0,2.7,2.2,4.8,4.8,4.8s4.9-2.2,4.9-4.8c0-3.5-1.6-6.9-4.4-9.3-1.4-1.2-3-2.1-4.8-2.7v-1.3c0-2.7-2.2-4.8-4.8-4.8s-4.9,2.2-4.9,4.8v1.3c-1.8.6-3.4,1.5-4.8,2.7-2.8,2.4-4.4,5.8-4.4,9.3,0,3.5,1.5,6.9,4.4,9.6,2.3,2.2,4.9,3.8,7.3,5.2,1.1.7,2.1,1.3,3,1.9,1.8,1.2,2.6,2,3,2.5.6.8.7,1.2.7,1.7,0,.7-.3,1.4-1,1.9-.8.7-2,1.1-3.3,1.1h0c-1.3,0-2.5-.4-3.3-1.1-.7-.6-1-1.2-1-1.9,0-2.7-2.2-4.8-4.8-4.8s-4.8,2.2-4.8,4.8c0,3.5,1.6,6.9,4.4,9.3,1.4,1.2,3,2.1,4.8,2.7v1.3c0,2.7,2.2,4.8,4.9,4.8s4.8-2.2,4.8-4.8v-1.3c1.8-.6,3.4-1.5,4.8-2.7,2.8-2.4,4.4-5.8,4.4-9.3,0-3.5-1.5-6.8-4.4-9.5-2.2-2.1-4.8-3.7-7.1-5Z"/>
  <path class="st1" d="M83.7,64.5c-1.4,7.8-5.4,14.7-11.2,19.7-1-.7-2.1-1.4-3.2-1.9,3-5,5-10.5,5.9-16.3-.4,0-.9,0-1.4,0-1.5,0-3.1-.1-4.6-.3-.9,5-2.7,9.8-5.4,14.1-3.5-1.3-7.2-2.1-11-2.4v-16h4c-3.8-2.2-7.2-5.2-9.9-8.7v2.8h-16.9c.6-6.6,2.8-12.8,6.4-18.2,1.4.5,2.8.9,4.2,1.2-.4-2.1-.6-4.2-.6-6.4,0-4.7.9-9.1,2.6-13.1-18.7,3.4-32.8,19.8-32.8,39.4s18,40.1,40.1,40.1,38.2-16.1,39.9-36.6c-2,1.1-4.1,1.9-6.3,2.6ZM38.2,26.4c-1.2,1.2-2.4,2.4-3.5,3.7-.7-.3-1.4-.7-2-1.1,1.7-1,3.6-1.9,5.5-2.6ZM27.6,32.7c1.2.8,2.4,1.5,3.6,2.2-3.9,6.1-6.2,13.2-6.8,20.6h-8.4c.8-9.1,5.1-17.1,11.6-22.8ZM27.6,84.2c-6.5-5.7-10.8-13.7-11.6-22.8h8.3c.4,7.5,2.7,14.6,6.4,20.9-1.1.6-2.1,1.2-3.2,1.9ZM32.7,87.9c.5-.3.9-.5,1.4-.8.7.9,1.5,1.8,2.3,2.7-1.3-.6-2.6-1.2-3.8-1.9ZM47.1,91.3c-2.8-1.9-5.2-4.1-7.4-6.6,2.4-.8,4.8-1.2,7.4-1.5v8.1ZM47.1,77.4c-3.8.3-7.5,1.1-11,2.4-3.4-5.5-5.5-11.8-5.9-18.4h16.9v16ZM53,91.3v-8.1c2.5.2,5,.7,7.4,1.5-2.2,2.5-4.6,4.7-7.4,6.6ZM63.7,89.8c.8-.9,1.6-1.8,2.3-2.7.5.3,1,.5,1.4.8-1.2.7-2.5,1.4-3.8,1.9Z"/>
</svg>