<?xml version="1.0" encoding="UTF-8"?>
<svg id="Layer_1" xmlns="http://www.w3.org/2000/svg" version="1.1" viewBox="0 0 100 100">
  <!-- Generator: Adobe Illustrator 29.3.0, SVG Export Plug-In . SVG Version: 2.1.0 Build 146)  -->
  <defs>
    <style>
      .st0 {
        fill: #2ed88e;
      }

      .st1 {
        fill: #16303d;
      }
    </style>
  </defs>
  <g>
    <path class="st1" d="M64.8,65.9h-29.6c-11.4,0-20.7,9.3-20.7,20.7v8.4h8.7v-8.4c0-6.5,5.5-11.9,11.9-11.9h29.6c6.5,0,11.9,5.5,11.9,11.9v8.4h8.7v-8.4c0-11.4-9.3-20.7-20.7-20.7Z"/>
    <path class="st1" d="M50,50.4c4.9,0,9.5-1.9,12.9-5.3,7.1-7.1,7.1-18.7,0-25.8-3.4-3.4-8-5.3-12.9-5.3s-9.5,1.9-12.9,5.3c-7.1,7.1-7.1,18.7,0,25.8,3.4,3.4,8,5.3,12.9,5.3ZM42.3,24.7c2-2,4.7-3.1,7.7-3.1s5.6,1.1,7.7,3.1c2,2,3.1,4.7,3.1,7.7s-1.1,5.6-3.1,7.7c-2,2-4.7,3.1-7.7,3.1s-5.6-1.1-7.7-3.1c-4.2-4.2-4.2-11.2,0-15.4Z"/>
  </g>
  <path class="st0" d="M76.3,27.7c-.3-2.2-.9-4.4-1.8-6.5-1.3-3.2-3.2-6-5.7-8.4-2.4-2.4-5.3-4.3-8.4-5.7-3.3-1.4-6.7-2.1-10.3-2.1s-7,.7-10.3,2.1c-3.2,1.3-6,3.2-8.4,5.7-2.4,2.4-4.3,5.3-5.7,8.4-.9,2-1.5,4.2-1.8,6.4-3.1,1.4-5.1,4.5-5.1,8s4,8.8,8.8,8.8h1.7v-11.2h0v-1.7c0-11.4,9.3-20.8,20.8-20.8s19.4,7.9,20.6,18.3v15.4h1.1c-.8,3.5-2.6,6-5.7,7.9-2.7,1.6-6.4,2.7-11.1,3.1-1-1.6-3-2.6-5.1-2.6-3.3,0-5.9,2.3-5.9,5.2s2.7,5.2,5.9,5.2,4.5-1.2,5.4-3c1.7-.1,3.2-.4,4.7-.7,3.3-.7,6.2-1.7,8.6-3.2,2.7-1.6,4.7-3.7,6.1-6.3,1.1-2,1.8-4.3,2.1-6.9,2.7-1.6,4.4-4.5,4.4-7.6s-1.9-6.4-4.9-7.9Z"/>
</svg>