<?xml version="1.0" encoding="UTF-8"?>
<svg id="Layer_1" xmlns="http://www.w3.org/2000/svg" version="1.1" viewBox="0 0 100 100">
  <!-- Generator: Adobe Illustrator 29.3.0, SVG Export Plug-In . SVG Version: 2.1.0 Build 146)  -->
  <defs>
    <style>
      .st0 {
        fill: #2ed88e;
      }

      .st1 {
        fill: #16303d;
      }
    </style>
  </defs>
  <path class="st1" d="M45.9,26.5H14.7c-.4,0-.8,0-1.2.2-.1,0-.3,0-.4,0h-.5c-4.6,1.5-7.7,5.5-7.7,10v36.8h0c.4,5.9,4.8,10.3,10.2,10.3h36.7c5.5-.4,9.8-4.5,10.1-9.8v-31.4s-9,1.5-9,1.5v28.8c0,.4-.4,1.4-1.3,1.4H15.2c-.6-.2-1-.6-1.2-1.2v-36.5c.1-1,.4-1.3,3.6-1.3h21.5l.5-.3"/>
  <path class="st0" d="M67.4,48.4v-10.4c-2.9,0-6,0-8.9.9-6.9,1.2-13.5,3.7-19,8.1-6.3,4.6-10.9,11.2-13.5,18.7h0c0-2.3.9-5.8,1.7-8.1,5.5-17.5,22.4-28.8,39.7-32.5v-8.9l27.6,16.1-27.6,16.4h0v-.3Z"/>
</svg>