<?xml version="1.0" encoding="UTF-8"?>
<svg id="Layer_1" xmlns="http://www.w3.org/2000/svg" version="1.1" viewBox="0 0 100 100">
  <!-- Generator: Adobe Illustrator 29.3.0, SVG Export Plug-In . SVG Version: 2.1.0 Build 146)  -->
  <defs>
    <style>
      .st0 {
        fill: #17303d;
      }

      .st1 {
        fill: #2ed88e;
      }
    </style>
  </defs>
  <path class="st1" d="M73.2,68.8h0c.5,1.1,2.4,3.1,4.4,5,.8.8,1.5,1.5,2.1,2.1h-36.8v7.3h36.8c-1,1.1-2.1,2.1-3.3,3.2-.9.8-1.8,1.7-2.8,2.7-1.3,1.8-.7,3.8.5,4.9,1.2,1.1,3.3,1.6,5,0l12.5-12.5c1-1,1-3,0-4.3l-12.8-12.8c-1.3-.9-2.9-.9-4.2.1-1.3,1-1.8,2.7-1.3,4.2Z"/>
  <path class="st1" d="M56.9,35.2h0c1.1-.5,3-2.4,5-4.4.8-.8,1.5-1.5,2.1-2.1v28.9h7.3v-28.9c1.1,1,2.1,2.1,3.2,3.3.8.9,1.7,1.8,2.7,2.8,1.8,1.3,3.8.7,4.9-.5,1.1-1.2,1.6-3.3,0-5l-12.5-12.5c-1-1-3-1-4.3,0l-12.8,12.8c-.9,1.3-.9,2.9.1,4.2,1,1.3,2.7,1.8,4.2,1.3Z"/>
  <path class="st0" d="M25.2,79.1c-2.8,0-5.1-2.3-5.1-5.1v-2.8l-1-.3c-2.2-.7-4.3-1.9-6-3.4-3.4-2.9-5.4-7.1-5.4-11.4,0-2.8,2.3-5.1,5.1-5.1s5.1,2.3,5.1,5.1c0,.9.3,2.3,1.8,3.7,1.4,1.2,3.3,1.9,5.4,1.9s4-.7,5.4-1.9c1.5-1.3,1.8-2.7,1.8-3.7,0-1.2-.3-2-1.2-3.2-.6-.8-1.8-2-4.3-3.7-1.3-.9-2.7-1.8-4.2-2.6-3.1-1.9-6.6-4-9.6-6.8-3.5-3.3-5.4-7.5-5.4-11.9,0-4.3,2-8.5,5.4-11.4,1.7-1.5,3.7-2.6,6-3.4l1-.3v-2.8c0-2.8,2.3-5.1,5.1-5.1s5.1,2.3,5.1,5.1v2.8l1,.3c2.2.7,4.3,1.9,6,3.4,3.4,2.9,5.4,7.1,5.4,11.4,0,2.8-2.3,5.1-5.1,5.1s-5.1-2.3-5.1-5.1c0-1.4-.6-2.6-1.8-3.7-1.4-1.2-3.2-1.9-5.2-1.9h-.2c-2,0-4,.7-5.4,1.9-1.2,1.1-1.8,2.3-1.8,3.7,0,1.3.3,2.1,1.2,3.3.6.8,1.8,2.1,4.3,3.8,1.3.9,2.8,1.8,4.3,2.7,3.1,1.8,6.5,3.9,9.4,6.6,3.5,3.3,5.5,7.5,5.4,11.7,0,4.3-2,8.5-5.4,11.4-1.7,1.5-3.7,2.6-6,3.4l-1,.3v2.8c0,2.8-2.3,5.1-5.1,5.1Z"/>
</svg>