<?xml version="1.0" encoding="UTF-8"?>
<svg id="Layer_1" xmlns="http://www.w3.org/2000/svg" version="1.1" viewBox="0 0 100 100">
  <!-- Generator: Adobe Illustrator 29.3.0, SVG Export Plug-In . SVG Version: 2.1.0 Build 146)  -->
  <defs>
    <style>
      .st0 {
        fill: #17303d;
      }

      .st1 {
        fill: #2ed88e;
      }
    </style>
  </defs>
  <rect class="st1" x="35.6" y="45.5" width="9.4" height="9.4"/>
  <rect class="st1" x="35.6" y="64.5" width="9.4" height="9.4"/>
  <rect class="st1" x="35.6" y="26.1" width="9.4" height="9.4"/>
  <rect class="st1" x="55" y="64.5" width="9.4" height="9.4"/>
  <rect class="st1" x="55" y="45.5" width="9.4" height="9.4"/>
  <rect class="st1" x="55" y="26.1" width="9.4" height="9.4"/>
  <path class="st0" d="M83.4,4.1H16.6c-2.3,0-4.1,1.8-4.1,4.1v83.6c0,2.3,1.8,4.1,4.1,4.1h66.8c2.3,0,4.1-1.8,4.1-4.1V8.2c0-2.3-1.8-4.1-4.1-4.1ZM79.3,87.7H20.7V12.3h58.7v75.4Z"/>
</svg>