<?xml version="1.0" encoding="UTF-8"?>
<svg id="Layer_1" xmlns="http://www.w3.org/2000/svg" version="1.1" viewBox="0 0 100 100">
  <!-- Generator: Adobe Illustrator 29.3.0, SVG Export Plug-In . SVG Version: 2.1.0 Build 146)  -->
  <defs>
    <style>
      .st0 {
        fill: #2ed88e;
      }

      .st1 {
        fill: #16303c;
      }
    </style>
  </defs>
  <g>
    <rect class="st0" x="28.5" y="39.4" width="43.1" height="6.8"/>
    <rect class="st0" x="28.5" y="53.6" width="43.1" height="6.8"/>
    <rect class="st0" x="28.5" y="67.9" width="43.1" height="6.8"/>
  </g>
  <path class="st1" d="M77,17.9h-10.1v-2.1c0-2.5-2-4.6-4.6-4.6h-3c-.2-2.1-1.1-4-2.6-5.5-1.9-1.9-4.6-2.9-7.4-2.7-4.5.3-8.1,3.8-8.6,8.2h-3c-2.5,0-4.6,2-4.6,4.6v2.1h-10.1c-4.1,0-7.4,3.3-7.4,7.4v64.4c0,4.1,3.3,7.4,7.4,7.4h54c4.1,0,7.4-3.3,7.4-7.4V25.2c0-4.1-3.3-7.4-7.4-7.4ZM38.3,16.5h4.9l1.9-.8c.8-.8.7-1.8.7-2.1,0-.2,0-.5,0-1.1,0-2.2,1.7-4,3.9-4.2,1.3,0,2.5.3,3.3,1.2.8.8,1.2,2,1.2,3.3-.1,1.2,0,2.1.7,2.9l1.9.9h4.9v5.7h-23.4v-5.7ZM79.2,89.6c0,1.2-1,2.2-2.2,2.2H23c-1.2,0-2.2-1-2.2-2.2V25.2c0-1.2,1-2.2,2.2-2.2h10.1c.2,2.4,2.1,4.2,4.5,4.2h24.7c2.4,0,4.4-1.9,4.5-4.2h10.1c1.2,0,2.2,1,2.2,2.2v64.4Z"/>
</svg>