<?xml version="1.0" encoding="UTF-8"?>
<svg id="Layer_1" xmlns="http://www.w3.org/2000/svg" version="1.1" viewBox="0 0 100 100">
  <!-- Generator: Adobe Illustrator 29.3.0, SVG Export Plug-In . SVG Version: 2.1.0 Build 146)  -->
  <defs>
    <style>
      .st0 {
        fill: #2ed88e;
      }

      .st1 {
        fill: #16303d;
      }
    </style>
  </defs>
  <path class="st0" d="M62.5,26.3c-1-.6-1.9-1.1-2.7-1.7-1.5-1-2.2-1.8-2.6-2.2-.5-.6-.6-1-.6-1.6,0-.6.3-1.2.9-1.7.7-.6,1.8-1,2.9-1h0c1.1,0,2.2.4,2.9,1,.6.5.9,1.1.9,1.7,0,2.3,1.9,4.2,4.2,4.2s4.2-1.9,4.2-4.2c0-3-1.4-6-3.8-8-1.2-1-2.6-1.8-4.2-2.4v-1.1c0-2.3-1.9-4.2-4.2-4.2s-4.2,1.9-4.2,4.2v1.1c-1.5.5-2.9,1.3-4.2,2.3-2.4,2.1-3.8,5-3.8,8,0,3,1.3,6,3.8,8.3,2,1.9,4.3,3.3,6.3,4.5.9.6,1.8,1.1,2.6,1.7,1.5,1,2.3,1.8,2.6,2.2.5.7.6,1,.6,1.5,0,.6-.3,1.2-.9,1.7-.7.6-1.8,1-2.9,1h0c-1.1,0-2.1-.4-2.9-1-.6-.5-.9-1.1-.9-1.7,0-2.3-1.9-4.2-4.2-4.2s-4.2,1.9-4.2,4.2c0,3,1.4,6,3.8,8,1.2,1,2.6,1.8,4.2,2.4v1.1c0,2.3,1.9,4.2,4.2,4.2s4.2-1.9,4.2-4.2v-1.1c1.5-.5,3-1.3,4.2-2.4,2.4-2.1,3.8-5,3.8-8,0-3-1.3-5.9-3.8-8.2-1.9-1.8-4.2-3.2-6.2-4.4Z"/>
  <g>
    <rect class="st1" x="13.4" y="64.7" width="9.5" height="30.3"/>
    <path class="st1" d="M34.5,54.6v40.4h9.5v-33.6c-3.5-1.7-6.7-4-9.5-6.8Z"/>
    <path class="st1" d="M55.6,64.5v30.5h9.5v-31.2c-2.2.5-4.6.7-7,.7s-1.7,0-2.5-.1Z"/>
    <path class="st1" d="M76.3,59.1v35.9h10.3v-46.7c-2.6,4.4-6.1,8.1-10.3,10.8Z"/>
  </g>
</svg>