<?xml version="1.0" encoding="UTF-8"?>
<svg id="Layer_1" xmlns="http://www.w3.org/2000/svg" version="1.1" viewBox="0 0 100 100">
  <!-- Generator: Adobe Illustrator 29.3.0, SVG Export Plug-In . SVG Version: 2.1.0 Build 146)  -->
  <defs>
    <style>
      .st0 {
        fill: #17303d;
      }

      .st1 {
        fill: #2ed88e;
      }
    </style>
  </defs>
  <path class="st1" d="M36,38h0c1.4-.6,3.8-3.1,6.3-5.5,1-1,1.9-1.9,2.6-2.6v36.5h9.2V29.9c1.3,1.3,2.7,2.7,4.1,4.1,1,1.1,2.2,2.3,3.5,3.6,2.3,1.7,4.8.8,6.1-.7,1.4-1.5,2-4.2,0-6.3l-15.8-15.8c-1.2-1.2-3.8-1.2-5.4,0l-16.2,16.2c-1.2,1.6-1.1,3.7.2,5.3,1.3,1.7,3.4,2.3,5.3,1.6Z"/>
  <path class="st0" d="M85.2,57.9v17.6H14.8v-17.6H4.1v22.9c0,2.8,2.5,5.3,5.3,5.3h81.1c2.8,0,5.3-2.5,5.3-5.3v-22.9h-10.7Z"/>
</svg>