<?xml version="1.0" encoding="UTF-8"?>
<svg id="Layer_1" xmlns="http://www.w3.org/2000/svg" version="1.1" viewBox="0 0 40 40">
  <!-- Generator: Adobe Illustrator 29.3.0, SVG Export Plug-In . SVG Version: 2.1.0 Build 146)  -->
  <defs>
    <style>
      .st0 {
        fill: #2ed88e;
      }

      .st1 {
        fill: #16303d;
      }
    </style>
  </defs>
  <path class="st1" d="M3.8,19.6c0-1.7.3-3.3.9-4.8.8-1.8,1.6-3.6,3-5s2-1.9,3.1-2.6c3.8-2.4,7.9-3.2,12.4-2.4,2.1.4,4,1.2,5.8,2.4,1.3.8,2.3,1.9,3.4,3,1.6,1.7,2.4,3.8,3.1,6,.4,1.2.5,2.4.5,3.6,0,.6-.3.8-.9.8-1-.2-2-.4-3-.6-.4,0-.6-.3-.6-.7,0-2-.6-3.8-1.7-5.4-.8-1.2-1.8-2.4-3.1-3.3-2.2-1.5-4.5-2.4-7.2-2.3-1.8,0-3.5.6-5.1,1.5-1.2.7-2.3,1.6-3.2,2.6-1.8,2-2.8,4.3-2.9,7,0,.4-.2.6-.6.7-1,.2-2.1.4-3.2.6-.5,0-.8-.2-.8-.6v-.4h0Z"/>
  <path class="st0" d="M34.2,28.4v4c0,.6-.2,1.2-.5,1.7-.7,1.2-2.2,1.7-3.6,1.4-1.5-.4-2.4-1.6-2.4-3.1v-7.7c0-2.7,2.8-4,4.8-2.9,1.1.6,1.6,1.5,1.6,2.6v4.1h0Z"/>
  <path class="st0" d="M12.3,28.4v4c0,.5-.1,1-.3,1.4-.6,1.3-2.2,2-3.6,1.7-1.5-.3-2.5-1.5-2.5-3v-8.1c0-1.2.6-2.2,1.7-2.7,1.1-.6,2.2-.5,3.2.1s1.5,1.6,1.5,2.8v3.9h0Z"/>
  <path class="st1" d="M35.4,24.3c.4,0,.9,0,1.3.2.8.2,1.2.9,1.3,1.7v4.3c0,1.1-.8,1.9-1.9,1.9h-.6v-8.1h0Z"/>
  <path class="st1" d="M4.4,32.4c-1.3.1-2.2-.4-2.4-1.5v-.5c0-1.3,0-2.5,0-3.8,0-1.3.8-2.4,2.5-2.2v8h0Z"/>
</svg>