<?xml version="1.0" encoding="UTF-8"?>
<svg id="Layer_1" xmlns="http://www.w3.org/2000/svg" version="1.1" viewBox="0 0 100 100">
  <!-- Generator: Adobe Illustrator 29.3.0, SVG Export Plug-In . SVG Version: 2.1.0 Build 146)  -->
  <defs>
    <style>
      .st0 {
        fill: #2ed88e;
      }

      .st1 {
        fill: #16303d;
      }
    </style>
  </defs>
  <polygon class="st0" points="81.7 74 81.7 61.9 74.6 61.9 74.6 74 62.8 74 62.8 80.8 74.6 80.8 74.6 92.9 81.7 92.9 81.7 80.8 93.8 80.8 93.8 74 81.7 74"/>
  <path class="st1" d="M48.9,56c6.8,0,13.2-2.6,18-7.5,9.9-9.9,9.9-26.1,0-36-4.8-4.8-11.2-7.5-18-7.5s-13.2,2.6-18,7.5c-9.9,9.9-9.9,26.1,0,36,4.8,4.8,11.2,7.5,18,7.5ZM38.2,20c2.8-2.8,6.6-4.3,10.7-4.3s7.9,1.5,10.7,4.3,4.3,6.6,4.3,10.7-1.5,7.9-4.3,10.7-6.6,4.3-10.7,4.3-7.9-1.5-10.7-4.3c-5.8-5.8-5.8-15.7,0-21.5Z"/>
  <path class="st0" d="M63.5,69.8c1.4-3.1,3.4-5.8,6.2-8.3l1.3-1.1H30.8c-13.8,0-24.6,10.8-24.6,24.6v10h9.8v-10c0-8.2,6.6-14.8,14.8-14.8h32.5l.2-.4Z"/>
</svg>