<?xml version="1.0" encoding="UTF-8"?>
<svg id="Layer_1" xmlns="http://www.w3.org/2000/svg" version="1.1" viewBox="0 0 100 100">
  <!-- Generator: Adobe Illustrator 29.3.0, SVG Export Plug-In . SVG Version: 2.1.0 Build 146)  -->
  <defs>
    <style>
      .st0 {
        fill: #2ed88e;
      }

      .st1 {
        fill: #16303d;
      }
    </style>
  </defs>
  <path class="st0" d="M50,35.3h.6c1.2,0,2.5.5,3.6,1.3.8.6,1.1,1.4,1.1,2.6s1.8,3.7,3.7,3.7,3.7-1.8,3.7-3.7c0-3-1.5-6.2-3.8-8.2-1.4-1.1-3.1-2-4.9-2.6v-2c0-2.3-1.9-3.7-3.7-3.7s-3.7,1.8-3.7,3.7v2c-1.9.6-3.6,1.5-5,2.6-2.3,2-3.8,5.2-3.8,8.2s1.9,6.6,3.7,8.4c1.9,1.9,4.2,3.3,6.2,4.5,1.3.8,2.5,1.5,3.4,2.3l.5.4c1.2.9,2.1,1.7,2.5,2.3.5.8,1,1.5,1,2.2s-.5,1.9-1.2,2.6c-1.1.8-2.4,1.3-3.9,1.3s-2.7-.4-3.9-1.3c-.8-.6-1.1-1.4-1.1-2.6,0-2.3-1.9-3.7-3.7-3.7s-3.7,1.8-3.7,3.7c0,3,1.5,6.2,3.8,8.2,1.4,1.1,3.1,2,4.9,2.6v2c0,2.3,1.9,3.7,3.7,3.7s3.7-1.8,3.7-3.7v-2c1.9-.6,3.6-1.5,5-2.6,2.3-2,3.8-5.2,3.8-8.2s-1.7-6.4-4.1-8.5h0c-1.8-1.7-4-3-5.9-4.2-1.3-.8-2.5-1.5-3.4-2.3l-.5-.4c-1.2-.9-2.1-1.7-2.5-2.3-.2-.3-.3-.6-.5-.9-.4-.7-.6-1-.6-1.7s.4-1.8,1.2-2.6c1-.8,2-1.3,3.6-1.3Z"/>
  <path class="st1" d="M89.5,86c.5,0,2.3.2,3.3-1.1.9-1.1,1.1-2.3,1.2-3.1s.2-1.7-1.1-3.4c-.8-1.1-2.3-1.3-3-1.4h-.6s-3.6,0-3.6,0c9.3-12.1,11.8-28.2,6.4-42.3-2.1-5.5-5.1-10.5-8.9-14.8-9.4-10.3-23.4-15.7-37.3-14.5-1.2,0-2.6.8-3.3,1.8-.7,1-1,2.1-1,3.3s.6,2.4,1.5,3.2c1,.9,2.2,1.2,3.4,1.1,11.1-1.1,22.2,3.1,29.6,11.4,2.9,3.2,5.3,7,7.1,11.7,3.9,10.3,2.4,22.2-3.7,31.6v-2.2c0-1.2,0-2.3-1-3.3-1.6-1.3-2.8-1.2-3.3-1.2s-2,0-3.4,1.3c-1.3,1.5-1.2,2.7-1.2,3.2v15.7l2.8,3.1h15"/>
  <path class="st1" d="M9.9,14.7c-.5,0-2.3-.1-3.3,1.2-.9,1.1-1,2.3-1.1,3.1s-.1,1.7,1.2,3.4c.8,1.1,2.3,1.3,3,1.3h.6s3.6,0,3.6,0c-9.1,12.2-11.3,28.3-5.7,42.4,2.2,5.4,5.3,10.4,9.1,14.7,9.6,10.1,23.6,15.4,37.5,13.9,1.2,0,2.6-.8,3.2-1.9.7-1.1,1-2.1,1-3.4s-.6-2.3-1.6-3.2c-1-.8-2.3-1.2-3.4-1-11.1,1.3-22.3-2.8-29.8-10.9-3-3.1-5.4-6.9-7.3-11.6-4-10.3-2.8-22.2,3.2-31.7v2.2c0,1.2,0,2.3,1.1,3.3,1.6,1.3,2.8,1.2,3.3,1.2s2-.1,3.4-1.4c1.3-1.5,1.1-2.8,1.1-3.3l-.2-15.7-2.8-3.1-15,.2"/>
</svg>