<?xml version="1.0" encoding="UTF-8"?>
<svg id="Layer_1" xmlns="http://www.w3.org/2000/svg" version="1.1" viewBox="0 0 40 40">
  <!-- Generator: Adobe Illustrator 29.3.0, SVG Export Plug-In . SVG Version: 2.1.0 Build 146)  -->
  <defs>
    <style>
      .st0 {
        fill: none;
      }

      .st1 {
        fill: #2ed88e;
      }

      .st2 {
        fill: #16303d;
      }
    </style>
  </defs>
  <path class="st0" d="M30.2,9.8c-2.7-2.7-6.2-4.1-10.2-4.1s-7.5,1.4-10.2,4.1c-2.6,2.7-4.1,6.3-4.1,10.2s1.4,7.5,4.1,10.2c2.7,2.7,6.2,4.1,10.2,4.1s7.5-1.4,10.2-4.1c2.7-2.7,4.1-6.2,4.1-10.2s-1.4-7.5-4.1-10.2ZM20.2,27.3c-.4.4-.9.6-1.5.6s-1.2-.2-1.6-.6c-.4-.4-.6-.8-.6-1.4s.2-1,.6-1.4c.4-.4.9-.6,1.6-.6s1.1.2,1.5.6c.4.4.6.8.6,1.4s-.2,1-.6,1.4ZM23.7,19.7c-.9.7-2,1.1-3.4,1.1v1.6h-3.3v-3.9c-.1,0,1.2,0,1.2,0,1.1,0,1.9-.1,2.5-.4.6-.3.8-.8.8-1.4s-.1-.9-.4-1.2c-.3-.3-.6-.4-1.1-.4s-.9.2-1.2.4c-.3.3-.4.7-.4,1.2h-3.4c0-.8.2-1.6.5-2.3.4-.7,1-1.2,1.7-1.6.8-.4,1.7-.6,2.8-.6s2.7.4,3.6,1.2h0c.9.9,1.4,2,1.4,3.4s-.4,2.4-1.3,3.1Z"/>
  <path class="st1" d="M23.6,13.3h0c-.9-.8-2.5-1.2-3.6-1.2s-2,.2-2.8.6c-.8.4-1.3,1-1.7,1.6-.4.7-.5,1.5-.5,2.3h3.4c0-.5.2-.9.4-1.2.3-.3.7-.4,1.2-.4s.8.2,1.1.4c.3.3.4.5.4,1.2s-.3,1.2-.8,1.4c-.6.3-1.4.4-2.5.4h-1.3v3.9h3.3v-1.6c1.5,0,2.6-.4,3.5-1.1.8-.7,1.3-1.6,1.3-3.1s-.4-2.5-1.4-3.3Z"/>
  <path class="st1" d="M18.6,24c-.6,0-1.2.2-1.6.6-.4.4-.6.9-.6,1.4s.2,1,.6,1.4c.4.4,1,.6,1.6.6s1.1-.2,1.5-.6c.4-.4.6-.8.6-1.4s-.2-1-.6-1.4c-.4-.4-.9-.6-1.5-.6Z"/>
  <path class="st2" d="M32.8,7.2c-3.4-3.4-7.8-5.2-12.8-5.2s-9.4,1.8-12.8,5.2c-3.4,3.4-5.2,7.9-5.2,12.8s1.8,9.4,5.2,12.8c3.4,3.4,7.8,5.2,12.8,5.2s9.4-1.8,12.8-5.2c3.4-3.4,5.2-7.8,5.2-12.8s-1.8-9.4-5.2-12.8ZM30.2,30.2c-2.7,2.7-6.2,4.1-10.2,4.1s-7.5-1.4-10.2-4.1c-2.7-2.7-4.1-6.3-4.1-10.2s1.5-7.5,4.1-10.2c2.7-2.7,6.2-4.1,10.2-4.1s7.5,1.4,10.2,4.1c2.7,2.7,4.1,6.2,4.1,10.2s-1.4,7.5-4.1,10.2Z"/>
</svg>