<?xml version="1.0" encoding="UTF-8"?>
<svg id="Layer_1" xmlns="http://www.w3.org/2000/svg" version="1.1" viewBox="0 0 100 100">
  <!-- Generator: Adobe Illustrator 29.3.0, SVG Export Plug-In . SVG Version: 2.1.0 Build 146)  -->
  <defs>
    <style>
      .st0 {
        fill: #2ed88e;
      }

      .st1 {
        fill: #16303d;
      }
    </style>
  </defs>
  <path class="st1" d="M73.5,5c5.5.6,9.8,4.9,10.2,10.4v69.1c-.4,5.6-4.9,10.1-10.5,10.5H27c-5.8-.3-10.3-4.8-10.7-10.6V15.4c.4-5.4,4.9-9.9,10.2-10.4h47ZM26.8,10.7c-2.6.3-4.7,2.5-4.9,5.1v68.4c.2,2.8,2.4,5,5.2,5.2h45.8c2.8-.2,5-2.4,5.2-5.2V15.9c-.2-2.7-2.4-5-5.1-5.2H26.8Z"/>
  <path class="st0" d="M63.6,55.6c1.1-.2,5.4-.2,6.6,0s2.1,1.2,2.3,2.3v23.3c-.1,1.2-1.1,2.3-2.3,2.5-1.1.2-5.4.2-6.6,0-1.2-.2-2.1-1.2-2.3-2.3v-23.3c.1-1.2,1.1-2.3,2.3-2.5Z"/>
  <path class="st1" d="M29.8,38.8c1.2-.2,5.3-.2,6.5,0s2.3,1.3,2.4,2.5.2,4.8,0,6.2-1.2,2.4-2.5,2.5-4.8.2-6.2,0-2.4-1.2-2.5-2.5c-.1-1.3-.2-5,0-6.3s1.2-2.2,2.3-2.4Z"/>
  <path class="st1" d="M46.7,38.8c1.2-.2,5.3-.2,6.5,0s2.3,1.3,2.4,2.5.2,4.8,0,6.2-1.2,2.4-2.5,2.5-4.8.2-6.2,0-2.4-1.2-2.5-2.5-.2-5,0-6.3,1.2-2.2,2.3-2.4Z"/>
  <path class="st1" d="M63.6,38.8c1.2-.2,5.3-.2,6.5,0s2.3,1.3,2.4,2.5.2,4.8,0,6.2-1.2,2.4-2.5,2.5-4.8.2-6.2,0-2.4-1.2-2.5-2.5-.2-5,0-6.3,1.2-2.2,2.3-2.4Z"/>
  <path class="st0" d="M29.8,55.6c1.2-.2,5.3-.2,6.5,0,1.3.2,2.3,1.3,2.4,2.5s.2,4.8,0,6.2-1.2,2.4-2.5,2.5-4.8.2-6.2,0-2.4-1.2-2.5-2.5c-.1-1.3-.2-5,0-6.3s1.2-2.2,2.3-2.4Z"/>
  <path class="st0" d="M46.7,55.6c1.2-.2,5.3-.2,6.5,0,1.3.2,2.3,1.3,2.4,2.5s.2,4.8,0,6.2-1.2,2.4-2.5,2.5-4.8.2-6.2,0-2.4-1.2-2.5-2.5-.2-5,0-6.3,1.2-2.2,2.3-2.4Z"/>
  <path class="st0" d="M29.8,72.5c1.2-.2,5.3-.2,6.5,0,1.3.2,2.3,1.3,2.4,2.5s.2,4.8,0,6.2-1.2,2.4-2.5,2.5-4.8.2-6.2,0-2.4-1.2-2.5-2.5c-.1-1.3-.2-5,0-6.3s1.2-2.2,2.3-2.4Z"/>
  <path class="st0" d="M46.7,72.5c1.2-.2,5.3-.2,6.5,0,1.3.2,2.3,1.3,2.4,2.5s.2,4.8,0,6.2-1.2,2.4-2.5,2.5-4.8.2-6.2,0-2.4-1.2-2.5-2.5-.2-5,0-6.3,1.2-2.2,2.3-2.4Z"/>
  <rect class="st1" x="27.4" y="15.8" width="45.2" height="17.3" rx="2.4" ry="2.4"/>
</svg>