<svg xmlns="http://www.w3.org/2000/svg" width="197.12" height="131" viewBox="0 0 197.12 131">
  <g id="undraw_forgot_password_re_hxwm" transform="translate(0 0)">
    <path id="Path_1229" data-name="Path 1229" d="M434.923,419.654c6.755-11.883,19.641-21.008,33.282-20.129a62.98,62.98,0,0,0-16.564,39.941c-.224,5.728.123,12.123-3.68,16.413a14.079,14.079,0,0,1-9.541,4.233A41.811,41.811,0,0,1,427.8,459.1l-.851.261C426.623,445.7,428.168,431.537,434.923,419.654Z" transform="translate(-364.216 -344.262)" fill="#f0f0f0"/>
    <path id="Path_1230" data-name="Path 1230" d="M468.2,398.832a53.832,53.832,0,0,0-23.969,22.857,23.183,23.183,0,0,0-2.537,6.806,13.3,13.3,0,0,0,.692,6.963c.749,2.084,1.757,4.128,1.987,6.358a8.141,8.141,0,0,1-2.179,6.291,21.151,21.151,0,0,1-7.008,4.662c-2.827,1.339-5.784,2.685-7.786,5.184-.243.3-.7-.091-.456-.394,3.483-4.348,9.446-5.166,13.581-8.668a8.244,8.244,0,0,0,3.286-6.468c-.08-2.281-1.117-4.39-1.894-6.493a14.188,14.188,0,0,1-.93-6.783,21.431,21.431,0,0,1,2.266-6.878,52.224,52.224,0,0,1,9.6-13.2,54.785,54.785,0,0,1,15.148-10.808c.348-.168.541.4.2.57Z" transform="translate(-364.192 -343.283)" fill="#fff"/>
    <path id="Path_1231" data-name="Path 1231" d="M505.434,455.946A8.076,8.076,0,0,1,503,445.776c.176-.345.721-.087.544.258a7.479,7.479,0,0,0,2.286,9.456c.314.227-.081.682-.394.456Z" transform="translate(-423.846 -380.846)" fill="#fff"/>
    <path id="Path_1232" data-name="Path 1232" d="M498.2,551.11a15.566,15.566,0,0,0,9.856-5.618c.244-.3.7.092.456.394a16.191,16.191,0,0,1-10.268,5.825c-.384.055-.427-.546-.044-.6Z" transform="translate(-420.526 -459.942)" fill="#fff"/>
    <path id="Path_1233" data-name="Path 1233" d="M573.017,432.407a4.572,4.572,0,0,0,4.086,1.457c.384-.06.425.541.044.6a5.123,5.123,0,0,1-4.524-1.6.311.311,0,0,1-.031-.425A.3.3,0,0,1,573.017,432.407Z" transform="translate(-479.656 -370.32)" fill="#fff"/>
    <path id="Path_1234" data-name="Path 1234" d="M493.334,552.01c-.238.044-.477.088-.718.137a60.2,60.2,0,0,0-9.413,2.6c-.238.083-.478.17-.713.26a63.47,63.47,0,0,0-19.962,12.148,61.639,61.639,0,0,0-6.465,6.775c-2.735,3.341-5.434,7.181-9.007,9.36a10.575,10.575,0,0,1-1.151.624l-20.585-8.539c-.037-.043-.076-.081-.114-.124l-.837-.3c.093-.132.193-.267.287-.4.054-.077.112-.152.166-.228.037-.051.075-.1.106-.149.012-.017.025-.034.035-.046.031-.048.065-.089.093-.132q.833-1.132,1.685-2.257s0,0,.008-.007a90.625,90.625,0,0,1,14.717-15.573c.166-.135.334-.274.509-.405a58.811,58.811,0,0,1,7.95-5.378,52.006,52.006,0,0,1,4.716-2.332,43.238,43.238,0,0,1,13.1-3.341c9-.836,18.167,1.216,25.07,6.87C492.988,551.718,493.16,551.861,493.334,552.01Z" transform="translate(-362.204 -459.26)" fill="#f0f0f0"/>
    <path id="Path_1235" data-name="Path 1235" d="M494.275,575.575a53.831,53.831,0,0,0-32.9,3.819,23.18,23.18,0,0,0-6.123,3.906,13.3,13.3,0,0,0-3.64,5.976c-.656,2.115-1.083,4.354-2.241,6.272a8.141,8.141,0,0,1-5.527,3.711,21.151,21.151,0,0,1-8.4-.5c-3.063-.633-6.235-1.338-9.338-.548-.376.1-.5-.493-.127-.589,5.4-1.375,10.652,1.563,16.062,1.255a8.244,8.244,0,0,0,6.518-3.186c1.309-1.869,1.751-4.178,2.4-6.325a14.186,14.186,0,0,1,3.341-5.976,21.431,21.431,0,0,1,5.951-4.127,52.225,52.225,0,0,1,15.614-4.756,54.785,54.785,0,0,1,18.6.491c.379.076.189.648-.187.573Z" transform="translate(-363.299 -482.582)" fill="#fff"/>
    <path id="Path_1236" data-name="Path 1236" d="M611.907,555.2a8.076,8.076,0,0,1,4.177-9.588c.349-.169.628.365.279.534a7.478,7.478,0,0,0-3.867,8.926C612.609,555.447,612.02,555.572,611.907,555.2Z" transform="translate(-510.605 -460.1)" fill="#fff"/>
    <path id="Path_1237" data-name="Path 1237" d="M549.68,642.4a15.566,15.566,0,0,0,11.252,1.448c.376-.094.5.495.127.589a16.191,16.191,0,0,1-11.705-1.531C549.014,642.717,549.342,642.212,549.68,642.4Z" transform="translate(-461.175 -536.821)" fill="#fff"/>
    <path id="Path_1238" data-name="Path 1238" d="M694.124,575.167a4.572,4.572,0,0,0,2.385,3.623c.342.183.014.688-.326.506a5.123,5.123,0,0,1-2.648-4,.311.311,0,0,1,.231-.358A.3.3,0,0,1,694.124,575.167Z" transform="translate(-575.588 -483.365)" fill="#fff"/>
    <path id="Path_1239" data-name="Path 1239" d="M216.3,511.619c-2.883-13.939-6.487-18.587-6.487-18.587l-1.377-1.068-1.656-1.286.008-.165-.393-.133-.092-.072-.151-.116-.024.026-.051.053-7.492-2.547-9.5-3.228-4.4-5.721a7.612,7.612,0,0,0-6.09-2.97l-14.056.1a7.612,7.612,0,0,0-5.12,2.031l-9.239,8.57-14.4,6.875-.024-.024-.151.108-2.224,1.064.092.478-1.377.993s-3.6,4.324-6.487,17.295c-.733,3.3-1.094,10.38-1.225,19.1a3.33,3.33,0,0,0,3.329,3.379H214.2a3.33,3.33,0,0,0,3.329-3.376C217.4,522.913,217.039,515.2,216.3,511.619Z" transform="translate(-124.382 -404.782)" fill="#3f3d56"/>
    <path id="Path_1240" data-name="Path 1240" d="M572.4,191.732a11.279,11.279,0,1,0,0,22.559h84.059a11.279,11.279,0,1,0,0-22.559Z" transform="translate(-470.614 -179.576)" fill="#e5e5e5"/>
    <path id="Path_1241" data-name="Path 1241" d="M581.13,202.747a9,9,0,1,0,0,17.993h84.059a9,9,0,1,0,0-17.993Z" transform="translate(-479.347 -188.308)" fill="#fff"/>
    <circle id="ab6171fa-7d69-4734-b81c-8dff60f9761b" cx="18.415" cy="18.415" r="18.415" transform="translate(30.972 28.914)" fill="#9e616a"/>
    <path id="Path_1242" data-name="Path 1242" d="M339.072,443.978q-.118-.26-.235-.521c.03,0,.06.005.09.006Z" transform="translate(-294.396 -379.137)" fill="#2f2e41"/>
    <path id="Path_1243" data-name="Path 1243" d="M243.764,243.247a5.125,5.125,0,0,1,3.211-1.388c1.191.038,2.4,1.114,2.152,2.279A18.923,18.923,0,0,1,271.9,235.6c2.96,1.044,5.862,3.133,6.542,6.2a5.582,5.582,0,0,0,.7,2.288,2.611,2.611,0,0,0,2.779.7l.029-.009A.87.87,0,0,1,283,246.007l-.837,1.562a6.711,6.711,0,0,0,3.2-.068.869.869,0,0,1,.923,1.353,15.152,15.152,0,0,1-12.082,6.21c-3.346-.02-6.726-1.174-9.982-.4a8.671,8.671,0,0,0-5.832,12.172,2.827,2.827,0,0,0-3.957.238,5.428,5.428,0,0,0-1.185,4.153,19.269,19.269,0,0,0,1.978,6.468,19.336,19.336,0,0,1-11.462-34.444Z" transform="translate(-213.304 -213.496)" fill="#2f2e41"/>
    <path id="Path_1244" data-name="Path 1244" d="M87.464,495.253l5.165,28.1,3.1.27Z" transform="translate(-69.339 -392.624)" opacity="0.2"/>
    <path id="Path_1245" data-name="Path 1245" d="M330.392,485.026l-5.165,30.2-3.1.29Z" transform="translate(-255.375 -384.517)" opacity="0.2"/>
    <path id="Path_1246" data-name="Path 1246" d="M252.918,153.363a1.836,1.836,0,0,1-2.457-1.077,1.864,1.864,0,0,1,.977-2.543,1.958,1.958,0,0,1,1.48,3.621Zm-1.9-5.695-.787.329a.849.849,0,0,1-1.079-.4l-.039-.076a6.888,6.888,0,0,1-.287-5.517c.609-1.912.862-3.257.353-4.475-.588-1.409-1.844-1.85-3.446-1.211a2.927,2.927,0,0,0-1.308.74,1.122,1.122,0,0,1-.813.33,1.085,1.085,0,0,1-.776-.34,1.108,1.108,0,0,1-.008-1.512,8.606,8.606,0,0,1,2.911-2c3.441-1.437,5.174.685,5.966,2.583.775,1.857.339,3.58-.362,5.811a5.769,5.769,0,0,0,.114,4.594.846.846,0,0,1-.44,1.138Z" transform="translate(-218.053 -133.069)" fill="#6c63ff"/>
    <path id="Path_1247" data-name="Path 1247" d="M639.625,269.04H622.9a.4.4,0,0,1,0-.806h16.725a.4.4,0,0,1,0,.806Z" transform="translate(-519.276 -240.225)" fill="#6c63ff"/>
    <path id="Path_1248" data-name="Path 1248" d="M742.006,269.688H725.282a.4.4,0,0,1,0-.806h16.724a.4.4,0,0,1,0,.806Z" transform="translate(-600.441 -240.739)" fill="#6c63ff"/>
    <path id="Path_1249" data-name="Path 1249" d="M844.388,270.336H827.664a.4.4,0,1,1,0-.806h16.724a.4.4,0,0,1,0,.806Z" transform="translate(-681.606 -241.252)" fill="#6c63ff"/>
    <path id="Path_1250" data-name="Path 1250" d="M946.766,270.984H930.042a.4.4,0,0,1,0-.806h16.724a.4.4,0,0,1,0,.806Z" transform="translate(-762.769 -241.766)" fill="#6c63ff"/>
    <circle id="Ellipse_62" data-name="Ellipse 62" cx="3.108" cy="3.108" r="3.108" transform="translate(108.842 18.891)" fill="#6c63ff"/>
    <circle id="Ellipse_63" data-name="Ellipse 63" cx="3.108" cy="3.108" r="3.108" transform="translate(130.186 18.891)" fill="#6c63ff"/>
    <circle id="Ellipse_64" data-name="Ellipse 64" cx="3.108" cy="3.108" r="3.108" transform="translate(151.531 18.891)" fill="#6c63ff"/>
    <circle id="Ellipse_65" data-name="Ellipse 65" cx="3.108" cy="3.108" r="3.108" transform="translate(172.875 18.891)" fill="#6c63ff"/>
  </g>
</svg>
