<?xml version="1.0" encoding="UTF-8"?>
<svg id="Layer_1" xmlns="http://www.w3.org/2000/svg" version="1.1" viewBox="0 0 100 100">
  <!-- Generator: Adobe Illustrator 29.3.0, SVG Export Plug-In . SVG Version: 2.1.0 Build 146)  -->
  <defs>
    <style>
      .st0 {
        fill: none;
      }

      .st1 {
        fill: #2ed88e;
      }

      .st2 {
        fill: #16303d;
      }
    </style>
  </defs>
  <path class="st0" d="M50,32.2c-4.4,0-7.9,3.5-7.9,7.9s3.6,7.9,7.9,7.9,7.9-3.6,7.9-7.9-3.5-7.9-7.9-7.9Z"/>
  <path class="st0" d="M50,11.5c-14.9,0-27.1,12.2-27.1,27.1s16.4,33.4,26.2,44.8l.9,1c10.4-12,27.3-34.5,27.3-45.9s-12.6-27.1-27.3-27.1h0ZM50,55.7c-8.6,0-15.6-7-15.6-15.6s7-15.6,15.6-15.6,15.6,7,15.6,15.6-7,15.6-15.6,15.6Z"/>
  <g>
    <path class="st2" d="M74.7,14.2c-4.6-4.5-10.6-7.8-16.8-9.4-.5-.1-1-.2-1.6-.4-9.2-1.8-19,.8-26.6,6.3-7.5,5.4-13,13.8-14.2,23-1,7.6,1,15.4,4.3,22.3,3.2,6.7,7.6,12.7,12.1,18.5s9.1,11.7,14.1,17.2,4,4.3,4,4.4c10.5-11.1,20.2-23,27.6-36.4,3.5-6.3,6.5-13.1,7.2-20.3.6-6.7-1.6-13.8-5.3-19.4-1.4-2.1-3-4.1-4.8-5.9ZM50,84.5l-.9-1c-9.8-11.4-26.2-30.6-26.2-44.8s12.2-27.1,27.1-27.1,27.3,14.9,27.3,27.1-16.9,33.8-27.3,45.9h0Z"/>
    <path class="st1" d="M50,24.5c-8.6,0-15.6,7-15.6,15.6s7,15.6,15.6,15.6,15.6-7,15.6-15.6-7-15.6-15.6-15.6ZM50,48c-4.4,0-7.9-3.6-7.9-7.9s3.6-7.9,7.9-7.9,7.9,3.5,7.9,7.9-3.5,7.9-7.9,7.9Z"/>
  </g>
</svg>