<svg xmlns="http://www.w3.org/2000/svg" width="152.97" height="40.623" viewBox="0 0 152.97 40.623">
  <g id="logo" transform="translate(0.275 -0.84)">
    <path id="Path_12569" data-name="Path 12569" d="M.354,32.831c0-6.456,4.037-11.054,10.014-11.054a8.083,8.083,0,0,1,7.146,3.914h.243V22.3h3.229V39.489c0,.647.4.968,1.049.968H23V43.28h-2.06a3.025,3.025,0,0,1-3.069-3.106v-.2h-.243a7.874,7.874,0,0,1-7.025,3.833C4.589,43.807.349,39.246.349,32.833Zm17.523.043c0-5.2-3.229-8.191-7.146-8.191-4.117,0-7.106,3.39-7.106,8.191s3.109,8.07,7.146,8.07C15.172,40.944,17.877,37.273,17.877,32.873Z" transform="translate(0 -2.967)" fill="#16303d" stroke="#16303d" stroke-width="1.247"/>
    <path id="Path_12570" data-name="Path 12570" d="M25.83,39.369l12.8-14.123V25H26.192V22.3H41.615v3.914l-12.8,14.123v.243h13v2.7H25.828V39.369Z" transform="translate(-1.95 -2.967)" fill="#16303d" stroke="#16303d" stroke-width="1.247"/>
    <path id="Path_12571" data-name="Path 12571" d="M44.242,32.873c0-6.7,4.6-11.1,10.174-11.1,6.34,0,9.973,4.438,9.973,10.733v1.171H47.511c.04,4.681,2.785,7.3,7.146,7.3a6.249,6.249,0,0,0,6.34-4.6l3.109.727c-1.172,3.914-4.644,6.7-9.489,6.7-6.381,0-10.377-4.478-10.377-10.934ZM61.12,31.1a6.341,6.341,0,0,0-6.7-6.456A6.729,6.729,0,0,0,47.594,31.1Z" transform="translate(-3.457 -2.967)" fill="#16303d" stroke="#16303d" stroke-width="1.247"/>
    <path id="Path_12572" data-name="Path 12572" d="M68.025,22.3h3.189v3.066h.243a6.855,6.855,0,0,1,6.421-3.59c4.885,0,7.833,3.67,7.833,8.311V43.28H82.522V30.288a5.314,5.314,0,0,0-5.41-5.528,5.829,5.829,0,0,0-5.9,6.012V43.28H68.027V22.3Z" transform="translate(-5.24 -2.967)" fill="#16303d" stroke="#16303d" stroke-width="1.247"/>
    <path id="Path_12573" data-name="Path 12573" d="M92.49,37.311V25.006H88.534V22.3h4.16V16.211h2.988V22.3h6.46v2.7h-6.46V37.271c0,2.259.928,3.227,3.149,3.227h3.029V43.28H98.871c-3.836,0-6.381-1.735-6.381-5.972Z" transform="translate(-6.642 -2.967)" fill="#16303d" stroke="#16303d" stroke-width="1.247"/>
    <path id="Path_12574" data-name="Path 12574" d="M108.721,25.006h-3.957V22.3h7.146v20.98h-3.189ZM108,16.168a2.249,2.249,0,0,1,2.3-2.3,2.319,2.319,0,1,1,0,4.638A2.235,2.235,0,0,1,108,16.168Z" transform="translate(-7.575 -2.967)" fill="#16303d" stroke="#16303d" stroke-width="1.247"/>
    <path id="Path_12575" data-name="Path 12575" d="M116.271,32.79a10.962,10.962,0,1,1,21.924,0,10.962,10.962,0,1,1-21.924,0Zm18.654,0c0-4.641-3.189-8.111-7.712-8.111s-7.673,3.51-7.673,8.111,3.189,8.111,7.673,8.111S134.925,37.471,134.925,32.79Z" transform="translate(-9.244 -2.967)" fill="#16303d" stroke="#16303d" stroke-width="1.247"/>
    <path id="Path_12576" data-name="Path 12576" d="M142.3,28.6V11.084A10.251,10.251,0,0,1,152.549.842v17.52A10.251,10.251,0,0,1,142.3,28.6Z" transform="translate(-11.301)" fill="#2ed88e"/>
    <path id="Path_12577" data-name="Path 12577" d="M153.748,18.359V.84A10.25,10.25,0,0,1,164,11.081V28.6A10.251,10.251,0,0,1,153.748,18.359Z" transform="translate(-11.301)" fill="#2ed88e"/>
  </g>
</svg>
