<?xml version="1.0" encoding="UTF-8"?>
<svg id="Layer_1" xmlns="http://www.w3.org/2000/svg" version="1.1" viewBox="0 0 100 100">
  <!-- Generator: Adobe Illustrator 29.3.0, SVG Export Plug-In . SVG Version: 2.1.0 Build 146)  -->
  <defs>
    <style>
      .st0 {
        fill: #2ed88e;
      }

      .st1 {
        fill: #16303d;
      }
    </style>
  </defs>
  <path class="st0" d="M68.8,58.9H31.2c-14.5,0-26.2,11.8-26.2,26.2v10.7h11.1v-10.7c0-8.2,6.9-15.2,15.2-15.2h37.6c8.2,0,15.2,6.9,15.2,15.2v10.7h11.1v-10.7c0-14.5-11.8-26.2-26.2-26.2Z"/>
  <path class="st1" d="M50,53.6c6.6,0,12.8-2.6,17.5-7.2,9.6-9.6,9.6-25.3,0-34.9-4.7-4.7-10.9-7.2-17.5-7.2s-12.8,2.6-17.5,7.2c-9.6,9.6-9.6,25.3,0,34.9,4.7,4.7,10.9,7.2,17.5,7.2ZM39.6,18.8c2.8-2.8,6.4-4.2,10.4-4.2s7.7,1.5,10.4,4.2c2.8,2.8,4.2,6.4,4.2,10.4s-1.5,7.7-4.2,10.4-6.4,4.2-10.4,4.2-7.7-1.5-10.4-4.2c-5.6-5.6-5.6-15.2,0-20.8Z"/>
</svg>