<?xml version="1.0" encoding="UTF-8"?>
<svg id="Layer_1" xmlns="http://www.w3.org/2000/svg" version="1.1" viewBox="0 0 100 100">
  <!-- Generator: Adobe Illustrator 29.3.0, SVG Export Plug-In . SVG Version: 2.1.0 Build 146)  -->
  <defs>
    <style>
      .st0 {
        fill: #2ed88e;
      }

      .st1 {
        fill: #16303d;
      }
    </style>
  </defs>
  <path class="st1" d="M86.8,62.8H13v32.2h12.3c4.3,0,7.7,0,13,0,0-6.4.2-12.9,0-19.3,0-1.8.4-3.7,1.5-5.2,1.6-2.3,4.3-3.6,7-4.2,3.9-1,9.9.1,12.8,3.1,2.1,2.2,2.8,5.4,2.7,8.5,0,.9,0,11.7.1,15.8v1.5c0,0,0,0,0,0h24.6v-32.2h-.2ZM31.7,75.6v13.3h-12.3v-19.4h13.3c-.7,1.7-1,3.7-1,6.1ZM80.4,88.9h-12v-14.8c0-1.2-.5-3-1-4.7h13v19.4Z"/>
  <path class="st0" d="M22.6,57.1c.3,0,.3,0,.3,0h55c1.7,0,2.2-.5,2.5-2.2.7-4.7,1.2-9.6-1.5-13.8-1.5-2.5-3.4-4.7-5.7-6.1-3.7-2.2-7.9-3.9-11.8-5.7-1.9-.8-3.9-1.6-5.6-2.6-3.2-1.9-5-3.6-5-3.6-1.1,1.3-1.9,2.1-3,2.8-1.3.8-2.7,1.5-4.1,2.1-3.4,1.5-6.9,2.5-10.3,3.9-10.6,4.7-15.2,11.6-12.3,24.1,0,1,.7,1,1.5,1ZM36.4,38.2c1.7-.7,3.4-1.5,5.4-2.2,1.5-.5,3.2-1.2,4.7-2,1.2-.5,2.9-1.2,4.6-2.1,3.1,1.6,6.3,3,9.5,4.4,2.5,1,5,2.1,7.4,3.4,2.5,1.3,4,2.8,5.5,5.2,1,1.5,1.2,3.4,1,6.1H27c-.5-6.1,2.2-9.6,9.3-12.8Z"/>
  <path class="st1" d="M48.2,5c0,.1-.1.2-.2.3,0,0,.1,0,.2,0v-.2Z"/>
  <path class="st0" d="M49.9,18.3h1c2.7,0,5.2-1.5,6.1-3.9-1.7.7-3.2,1.2-4.7,1.2s-3-.7-4.2-2c-2.2-2.2-2.2-4.5-.2-8.3-2.8,1-4.2,3.9-4,6.8.2,3.2,2.7,5.7,5.9,6.1Z"/>
</svg>