<svg xmlns="http://www.w3.org/2000/svg" width="81" height="81" viewBox="0 0 81 81">
  <g id="checkmark-circle-outline" transform="translate(-48 -47.5)">
    <path id="Path_143" data-name="Path 143" d="M189.592,177.312l-3.385-3.481a.728.728,0,0,0-.538-.231.7.7,0,0,0-.538.231l-23.462,23.635-8.538-8.538a.744.744,0,0,0-1.077,0l-3.423,3.423a.766.766,0,0,0,0,1.1L159.4,204.215a3.406,3.406,0,0,0,2.25,1.1,3.569,3.569,0,0,0,2.231-1.058h.019l25.712-25.846a.822.822,0,0,0-.019-1.1Z" transform="translate(-81.092 -101.446)" fill="#5cb85c" stroke="#5cb85c" stroke-width="1"/>
    <path id="Path_144" data-name="Path 144" d="M88,53.385A34.6,34.6,0,1,1,63.519,63.519,34.386,34.386,0,0,1,88,53.385M88,48a40,40,0,1,0,40,40A39.994,39.994,0,0,0,88,48Z" transform="translate(0.5 0)" fill="#5cb85c" stroke="#5cb85c" stroke-width="1"/>
  </g>
</svg>
