<svg xmlns="http://www.w3.org/2000/svg" width="27.45" height="17.353" viewBox="0 0 27.45 17.353">
  <g id="Group_162827" data-name="Group 162827" transform="translate(-1.275 -6.45)">
    <path id="Path_13255" data-name="Path 13255" d="M28.5,14.443a25.409,25.409,0,0,0-3.87-3.981,20.138,20.138,0,0,0-4.26-2.735A12.716,12.716,0,0,0,15,6.45,12.614,12.614,0,0,0,9.63,7.726a20.923,20.923,0,0,0-4.26,2.735A23.857,23.857,0,0,0,1.5,14.443a1.151,1.151,0,0,0,0,1.368,25.254,25.254,0,0,0,3.87,3.981,20.14,20.14,0,0,0,4.26,2.735A12.715,12.715,0,0,0,15,23.8a12.613,12.613,0,0,0,5.37-1.276,20.925,20.925,0,0,0,4.26-2.735A25.254,25.254,0,0,0,28.5,15.81,1.151,1.151,0,0,0,28.5,14.443Zm-2.31.669a25.4,25.4,0,0,1-2.97,2.918c-1.95,1.611-4.95,3.525-8.19,3.525S8.76,19.64,6.84,18.029a23.228,23.228,0,0,1-2.97-2.918,25.383,25.383,0,0,1,2.97-2.917c1.95-1.611,4.95-3.525,8.19-3.525s6.27,1.915,8.19,3.525A23.214,23.214,0,0,1,26.19,15.111Z" fill="#16303d"/>
    <path id="Path_13256" data-name="Path 13256" d="M17.04,12.96A2.9,2.9,0,1,0,17.88,15,2.857,2.857,0,0,0,17.04,12.96Z" fill="#2ed88e"/>
  </g>
</svg>
