<svg xmlns="http://www.w3.org/2000/svg" width="25.41" height="18.508" viewBox="0 0 25.41 18.508">
  <g id="Group_162826" data-name="Group 162826" transform="translate(-1.043 -4.116)">
    <path id="Path_13252" data-name="Path 13252" d="M17.668,18.9a9.755,9.755,0,0,1-3.92.868c-3.08,0-5.908-1.764-7.728-3.248a25.059,25.059,0,0,1-2.856-2.772A22.889,22.889,0,0,1,6.02,10.976a18.021,18.021,0,0,1,1.96-1.4l.448-.28L7.084,7.952,6.8,8.12a21.663,21.663,0,0,0-1.96,1.428,24.107,24.107,0,0,0-3.612,3.64.924.924,0,0,0,0,1.12,22.723,22.723,0,0,0,3.612,3.64,18.672,18.672,0,0,0,3.948,2.52,11.779,11.779,0,0,0,4.984,1.176,11.779,11.779,0,0,0,4.984-1.176l.588-.28-1.4-1.4L17.7,18.9Z" fill="#16303d"/>
    <path id="Path_13253" data-name="Path 13253" d="M26.292,13.188a22.592,22.592,0,0,0-3.612-3.64,18.672,18.672,0,0,0-3.948-2.52,11.779,11.779,0,0,0-4.984-1.176,11.63,11.63,0,0,0-4.76,1.064l-2.8-2.8L4.872,5.432,21.98,22.54l.084.084,1.316-1.316-2.24-2.24a17.962,17.962,0,0,0,1.512-1.148,22.591,22.591,0,0,0,3.612-3.64.924.924,0,0,0,0-1.12Zm-1.96.56a25.059,25.059,0,0,1-2.856,2.772,13.282,13.282,0,0,1-1.68,1.2L18.06,15.988a4.862,4.862,0,0,0-4.312-7.112,3.484,3.484,0,0,0-2.24.56L10.416,8.344A9.746,9.746,0,0,1,13.748,7.7c3.08,0,5.908,1.764,7.728,3.248a25.059,25.059,0,0,1,2.856,2.772ZM15.764,11.76a2.771,2.771,0,0,0-1.988-.812c-.756,0-.448,0-.672.084l-.168-.168a2.768,2.768,0,0,1,.84-.112,2.977,2.977,0,0,1,3,2.884v.224a3.277,3.277,0,0,1-.112.728l-.168-.168a2.814,2.814,0,0,0-.728-2.66Z" fill="#16303d"/>
    <path id="Path_13254" data-name="Path 13254" d="M11.4,12.4l-.168.476a2.406,2.406,0,0,0-.14.9,2.677,2.677,0,0,0,2.688,2.688,1.611,1.611,0,0,0,.9-.14l.476-.168-3.724-3.724Z" fill="#2ed88e"/>
  </g>
</svg>
